<?xml version="1.0" encoding="utf-8"?>
<!-- Generator: Adobe Illustrator 24.1.0, SVG Export Plug-In . SVG Version: 6.00 Build 0)  -->
<svg version="1.1" id="Layer_1" xmlns="http://www.w3.org/2000/svg" xmlns:xlink="http://www.w3.org/1999/xlink" x="0px" y="0px"
	 viewBox="0 0 600 350" style="enable-background:new 0 0 600 350;" xml:space="preserve">
<style type="text/css">
	.st0{fill:#01A9BA;}
	.st1{opacity:0.3;fill:none;stroke:#01A9BA;stroke-width:0.5266;stroke-miterlimit:10;}
	.st2{opacity:0.3;fill:none;stroke:#01A9BA;stroke-width:0.4884;stroke-miterlimit:10;}
	.st3{fill:#1C2D5B;}
	.st4{fill:#5FBA46;}
	.st5{fill:none;stroke:#5FBA46;stroke-width:2.9304;stroke-miterlimit:10;}
	
		.st6{fill:#5FBA46;stroke:#5FBA46;stroke-width:3.9072;stroke-linecap:round;stroke-linejoin:round;stroke-miterlimit:10;stroke-dasharray:0.9768,6.8377,0.9768,7.8145;}
	.st7{fill:#FFFFFF;stroke:#5FBA46;stroke-miterlimit:10;}
</style>
<g>
	<path class="st0" d="M456.8,336.1c0.1,0,0.2,0,0.3,0.1c0.1,0.1,0.1,0.2,0.1,0.3v0.8h-6.8V337c0-0.1,0-0.2,0.1-0.3
		c0-0.1,0.1-0.2,0.2-0.3l3.3-3.4c0.3-0.3,0.5-0.6,0.7-0.8c0.2-0.3,0.4-0.5,0.6-0.8c0.2-0.3,0.3-0.5,0.4-0.8c0.1-0.3,0.1-0.6,0.1-0.9
		c0-0.3,0-0.6-0.1-0.8s-0.2-0.4-0.4-0.6c-0.2-0.2-0.4-0.3-0.6-0.3c-0.2-0.1-0.5-0.1-0.7-0.1c-0.3,0-0.5,0-0.7,0.1
		c-0.2,0.1-0.4,0.2-0.6,0.3c-0.2,0.1-0.3,0.3-0.4,0.5c-0.1,0.2-0.2,0.4-0.2,0.6c-0.1,0.2-0.1,0.3-0.2,0.3c-0.1,0.1-0.2,0.1-0.4,0
		l-0.7-0.1c0.1-0.5,0.2-0.9,0.4-1.3s0.4-0.7,0.7-0.9c0.3-0.3,0.6-0.4,1-0.6c0.4-0.1,0.8-0.2,1.2-0.2c0.4,0,0.8,0.1,1.2,0.2
		c0.4,0.1,0.7,0.3,1,0.6c0.3,0.3,0.5,0.6,0.6,0.9c0.2,0.4,0.2,0.8,0.2,1.3c0,0.4-0.1,0.8-0.2,1.1c-0.1,0.3-0.3,0.7-0.5,1
		c-0.2,0.3-0.4,0.6-0.7,0.9c-0.3,0.3-0.5,0.6-0.8,0.9l-2.7,2.9c0.2-0.1,0.4-0.1,0.6-0.1c0.2,0,0.4,0,0.6,0H456.8z"/>
	<path class="st0" d="M465.9,332.1c0,0.9-0.1,1.7-0.3,2.4c-0.2,0.7-0.5,1.2-0.8,1.7c-0.3,0.4-0.7,0.8-1.2,1
		c-0.5,0.2-0.9,0.3-1.5,0.3c-0.5,0-1-0.1-1.5-0.3s-0.8-0.6-1.2-1c-0.3-0.4-0.6-1-0.8-1.7c-0.2-0.7-0.3-1.5-0.3-2.4
		c0-0.9,0.1-1.7,0.3-2.4c0.2-0.7,0.5-1.3,0.8-1.7s0.7-0.8,1.2-1s0.9-0.3,1.5-0.3c0.5,0,1,0.1,1.5,0.3c0.5,0.2,0.8,0.6,1.2,1
		s0.6,1,0.8,1.7C465.8,330.3,465.9,331.1,465.9,332.1z M464.6,332.1c0-0.8-0.1-1.5-0.2-2.1c-0.1-0.6-0.3-1-0.5-1.3s-0.5-0.6-0.8-0.7
		c-0.3-0.1-0.6-0.2-0.9-0.2c-0.3,0-0.6,0.1-0.9,0.2c-0.3,0.1-0.5,0.4-0.8,0.7c-0.2,0.3-0.4,0.8-0.5,1.3c-0.1,0.6-0.2,1.2-0.2,2.1
		c0,0.8,0.1,1.5,0.2,2c0.1,0.6,0.3,1,0.5,1.3c0.2,0.3,0.5,0.6,0.8,0.7c0.3,0.1,0.6,0.2,0.9,0.2c0.3,0,0.6-0.1,0.9-0.2
		s0.5-0.4,0.8-0.7s0.4-0.8,0.5-1.3C464.5,333.6,464.6,332.9,464.6,332.1z"/>
	<path class="st0" d="M473.5,336.4v1h-5.5v-1h2.2v-7.3c0-0.2,0-0.4,0-0.7l-1.8,1.6c-0.1,0.1-0.1,0.1-0.2,0.1c-0.1,0-0.1,0-0.2,0
		c-0.1,0-0.1,0-0.1-0.1c0,0-0.1-0.1-0.1-0.1l-0.4-0.6l3-2.8h1v9.7H473.5z"/>
	<path class="st0" d="M480.1,331.8c0.6,0.2,1.1,0.5,1.5,0.9c0.3,0.4,0.5,1,0.5,1.7c0,0.5-0.1,0.9-0.3,1.3c-0.2,0.4-0.4,0.7-0.7,1
		c-0.3,0.3-0.7,0.5-1.1,0.6s-0.9,0.2-1.4,0.2s-1-0.1-1.4-0.2c-0.4-0.1-0.8-0.3-1.1-0.6c-0.3-0.3-0.5-0.6-0.7-1
		c-0.2-0.4-0.2-0.8-0.2-1.3c0-0.7,0.2-1.3,0.5-1.7c0.3-0.4,0.8-0.8,1.5-0.9c-0.5-0.2-0.9-0.5-1.2-0.9c-0.3-0.4-0.4-0.9-0.4-1.5
		c0-0.4,0.1-0.8,0.2-1.1c0.1-0.3,0.4-0.6,0.6-0.9c0.3-0.3,0.6-0.5,1-0.6c0.4-0.1,0.8-0.2,1.3-0.2c0.5,0,0.9,0.1,1.3,0.2
		c0.4,0.1,0.7,0.3,1,0.6c0.3,0.3,0.5,0.6,0.6,0.9c0.1,0.3,0.2,0.7,0.2,1.1c0,0.6-0.1,1.1-0.4,1.5
		C481.1,331.3,480.7,331.6,480.1,331.8z M478.7,336.5c0.3,0,0.6,0,0.9-0.1c0.3-0.1,0.5-0.2,0.7-0.4c0.2-0.2,0.3-0.4,0.4-0.6
		c0.1-0.2,0.1-0.5,0.1-0.8c0-0.4-0.1-0.7-0.2-0.9c-0.1-0.3-0.3-0.5-0.5-0.6c-0.2-0.2-0.4-0.3-0.7-0.4c-0.3-0.1-0.5-0.1-0.8-0.1
		c-0.3,0-0.5,0-0.8,0.1c-0.3,0.1-0.5,0.2-0.7,0.4c-0.2,0.2-0.4,0.4-0.5,0.6c-0.1,0.3-0.2,0.6-0.2,0.9c0,0.3,0,0.6,0.1,0.8
		c0.1,0.2,0.2,0.5,0.4,0.6c0.2,0.2,0.4,0.3,0.7,0.4C478.1,336.4,478.4,336.5,478.7,336.5z M478.7,327.6c-0.3,0-0.6,0-0.8,0.1
		c-0.2,0.1-0.4,0.2-0.6,0.4c-0.2,0.2-0.3,0.4-0.3,0.6c-0.1,0.2-0.1,0.5-0.1,0.7c0,0.2,0,0.5,0.1,0.7s0.2,0.4,0.3,0.6
		c0.1,0.2,0.3,0.3,0.6,0.4c0.2,0.1,0.5,0.2,0.8,0.2s0.6-0.1,0.9-0.2c0.2-0.1,0.4-0.2,0.6-0.4c0.1-0.2,0.3-0.4,0.3-0.6
		s0.1-0.5,0.1-0.7c0-0.2,0-0.5-0.1-0.7s-0.2-0.4-0.3-0.6s-0.3-0.3-0.6-0.4C479.3,327.7,479,327.6,478.7,327.6z"/>
</g>
<g>
	<path class="st0" d="M373.7,336.1c0.1,0,0.2,0,0.3,0.1c0.1,0.1,0.1,0.2,0.1,0.3v0.8h-6.8V337c0-0.1,0-0.2,0.1-0.3
		c0-0.1,0.1-0.2,0.2-0.3l3.3-3.4c0.3-0.3,0.5-0.6,0.7-0.8c0.2-0.3,0.4-0.5,0.6-0.8c0.2-0.3,0.3-0.5,0.4-0.8c0.1-0.3,0.1-0.6,0.1-0.9
		c0-0.3,0-0.6-0.1-0.8s-0.2-0.4-0.4-0.6c-0.2-0.2-0.4-0.3-0.6-0.3c-0.2-0.1-0.5-0.1-0.7-0.1c-0.3,0-0.5,0-0.7,0.1
		c-0.2,0.1-0.4,0.2-0.6,0.3c-0.2,0.1-0.3,0.3-0.4,0.5c-0.1,0.2-0.2,0.4-0.2,0.6c-0.1,0.2-0.1,0.3-0.2,0.3c-0.1,0.1-0.2,0.1-0.4,0
		l-0.7-0.1c0.1-0.5,0.2-0.9,0.4-1.3s0.4-0.7,0.7-0.9c0.3-0.3,0.6-0.4,1-0.6c0.4-0.1,0.8-0.2,1.2-0.2c0.4,0,0.8,0.1,1.2,0.2
		c0.4,0.1,0.7,0.3,1,0.6c0.3,0.3,0.5,0.6,0.6,0.9c0.2,0.4,0.2,0.8,0.2,1.3c0,0.4-0.1,0.8-0.2,1.1c-0.1,0.3-0.3,0.7-0.5,1
		c-0.2,0.3-0.4,0.6-0.7,0.9c-0.3,0.3-0.5,0.6-0.8,0.9l-2.7,2.9c0.2-0.1,0.4-0.1,0.6-0.1c0.2,0,0.4,0,0.6,0H373.7z"/>
	<path class="st0" d="M382.7,332.1c0,0.9-0.1,1.7-0.3,2.4c-0.2,0.7-0.5,1.2-0.8,1.7c-0.3,0.4-0.7,0.8-1.2,1
		c-0.5,0.2-0.9,0.3-1.5,0.3c-0.5,0-1-0.1-1.5-0.3s-0.8-0.6-1.2-1c-0.3-0.4-0.6-1-0.8-1.7c-0.2-0.7-0.3-1.5-0.3-2.4
		c0-0.9,0.1-1.7,0.3-2.4c0.2-0.7,0.5-1.3,0.8-1.7s0.7-0.8,1.2-1s0.9-0.3,1.5-0.3c0.5,0,1,0.1,1.5,0.3c0.5,0.2,0.8,0.6,1.2,1
		s0.6,1,0.8,1.7C382.6,330.3,382.7,331.1,382.7,332.1z M381.4,332.1c0-0.8-0.1-1.5-0.2-2.1c-0.1-0.6-0.3-1-0.5-1.3s-0.5-0.6-0.8-0.7
		c-0.3-0.1-0.6-0.2-0.9-0.2c-0.3,0-0.6,0.1-0.9,0.2c-0.3,0.1-0.5,0.4-0.8,0.7c-0.2,0.3-0.4,0.8-0.5,1.3c-0.1,0.6-0.2,1.2-0.2,2.1
		c0,0.8,0.1,1.5,0.2,2c0.1,0.6,0.3,1,0.5,1.3c0.2,0.3,0.5,0.6,0.8,0.7c0.3,0.1,0.6,0.2,0.9,0.2c0.3,0,0.6-0.1,0.9-0.2
		s0.5-0.4,0.8-0.7s0.4-0.8,0.5-1.3C381.3,333.6,381.4,332.9,381.4,332.1z"/>
	<path class="st0" d="M390.4,336.4v1h-5.5v-1h2.2v-7.3c0-0.2,0-0.4,0-0.7l-1.8,1.6c-0.1,0.1-0.1,0.1-0.2,0.1c-0.1,0-0.1,0-0.2,0
		c-0.1,0-0.1,0-0.1-0.1c0,0-0.1-0.1-0.1-0.1l-0.4-0.6l3-2.8h1v9.7H390.4z"/>
	<path class="st0" d="M399.1,326.7v0.6c0,0.2,0,0.3-0.1,0.4c0,0.1-0.1,0.2-0.1,0.3l-4.2,8.9c-0.1,0.1-0.1,0.2-0.3,0.3
		s-0.3,0.1-0.4,0.1h-0.9l4.3-8.8c0.1-0.1,0.1-0.2,0.2-0.3c0.1-0.1,0.1-0.2,0.2-0.3h-5.3c-0.1,0-0.2,0-0.2-0.1
		c-0.1-0.1-0.1-0.1-0.1-0.2v-0.9H399.1z"/>
</g>
<g>
	<path class="st0" d="M292,336.1c0.1,0,0.2,0,0.3,0.1c0.1,0.1,0.1,0.2,0.1,0.3v0.8h-6.8V337c0-0.1,0-0.2,0.1-0.3
		c0-0.1,0.1-0.2,0.2-0.3l3.3-3.4c0.3-0.3,0.5-0.6,0.7-0.8c0.2-0.3,0.4-0.5,0.6-0.8c0.2-0.3,0.3-0.5,0.4-0.8c0.1-0.3,0.1-0.6,0.1-0.9
		c0-0.3,0-0.6-0.1-0.8c-0.1-0.2-0.2-0.4-0.4-0.6s-0.4-0.3-0.6-0.3c-0.2-0.1-0.5-0.1-0.7-0.1c-0.3,0-0.5,0-0.7,0.1
		c-0.2,0.1-0.4,0.2-0.6,0.3c-0.2,0.1-0.3,0.3-0.4,0.5c-0.1,0.2-0.2,0.4-0.2,0.6c-0.1,0.2-0.1,0.3-0.2,0.3c-0.1,0.1-0.2,0.1-0.4,0
		l-0.7-0.1c0.1-0.5,0.2-0.9,0.4-1.3s0.4-0.7,0.7-0.9c0.3-0.3,0.6-0.4,1-0.6s0.8-0.2,1.2-0.2c0.4,0,0.8,0.1,1.2,0.2
		c0.4,0.1,0.7,0.3,1,0.6c0.3,0.3,0.5,0.6,0.6,0.9c0.2,0.4,0.2,0.8,0.2,1.3c0,0.4-0.1,0.8-0.2,1.1c-0.1,0.3-0.3,0.7-0.5,1
		c-0.2,0.3-0.4,0.6-0.7,0.9c-0.3,0.3-0.5,0.6-0.8,0.9l-2.7,2.9c0.2-0.1,0.4-0.1,0.6-0.1c0.2,0,0.4,0,0.6,0H292z"/>
	<path class="st0" d="M301,332.1c0,0.9-0.1,1.7-0.3,2.4c-0.2,0.7-0.5,1.2-0.8,1.7c-0.3,0.4-0.7,0.8-1.2,1c-0.5,0.2-0.9,0.3-1.5,0.3
		c-0.5,0-1-0.1-1.5-0.3s-0.8-0.6-1.2-1c-0.3-0.4-0.6-1-0.8-1.7c-0.2-0.7-0.3-1.5-0.3-2.4c0-0.9,0.1-1.7,0.3-2.4
		c0.2-0.7,0.5-1.3,0.8-1.7c0.3-0.5,0.7-0.8,1.2-1s0.9-0.3,1.5-0.3c0.5,0,1,0.1,1.5,0.3c0.5,0.2,0.8,0.6,1.2,1c0.3,0.5,0.6,1,0.8,1.7
		C300.9,330.3,301,331.1,301,332.1z M299.7,332.1c0-0.8-0.1-1.5-0.2-2.1c-0.1-0.6-0.3-1-0.5-1.3c-0.2-0.3-0.5-0.6-0.8-0.7
		c-0.3-0.1-0.6-0.2-0.9-0.2s-0.6,0.1-0.9,0.2c-0.3,0.1-0.5,0.4-0.8,0.7c-0.2,0.3-0.4,0.8-0.5,1.3c-0.1,0.6-0.2,1.2-0.2,2.1
		c0,0.8,0.1,1.5,0.2,2c0.1,0.6,0.3,1,0.5,1.3c0.2,0.3,0.5,0.6,0.8,0.7c0.3,0.1,0.6,0.2,0.9,0.2s0.6-0.1,0.9-0.2s0.5-0.4,0.8-0.7
		c0.2-0.3,0.4-0.8,0.5-1.3S299.7,332.9,299.7,332.1z"/>
	<path class="st0" d="M308.7,336.4v1h-5.5v-1h2.2v-7.3c0-0.2,0-0.4,0-0.7l-1.8,1.6c-0.1,0.1-0.1,0.1-0.2,0.1c-0.1,0-0.1,0-0.2,0
		c-0.1,0-0.1,0-0.1-0.1c0,0-0.1-0.1-0.1-0.1l-0.4-0.6l3-2.8h1v9.7H308.7z"/>
	<path class="st0" d="M313.1,330.7c-0.1,0.1-0.2,0.2-0.3,0.3c-0.1,0.1-0.2,0.2-0.2,0.3c0.2-0.2,0.5-0.3,0.8-0.4s0.6-0.1,0.9-0.1
		c0.4,0,0.8,0.1,1.2,0.2c0.4,0.1,0.7,0.3,1,0.6c0.3,0.3,0.5,0.6,0.7,1s0.2,0.8,0.2,1.4c0,0.5-0.1,0.9-0.3,1.4
		c-0.2,0.4-0.4,0.8-0.7,1.1c-0.3,0.3-0.7,0.6-1.1,0.7c-0.4,0.2-0.9,0.3-1.4,0.3c-0.5,0-1-0.1-1.4-0.3c-0.4-0.2-0.8-0.4-1.1-0.7
		c-0.3-0.3-0.5-0.7-0.7-1.1c-0.2-0.5-0.2-1-0.2-1.5c0-0.5,0.1-1,0.3-1.5s0.5-1.1,0.9-1.7l2.6-3.6c0.1-0.1,0.2-0.2,0.3-0.2
		s0.3-0.1,0.4-0.1h1.1L313.1,330.7z M313.8,336.4c0.3,0,0.7-0.1,0.9-0.2s0.5-0.3,0.7-0.5c0.2-0.2,0.3-0.4,0.5-0.7
		c0.1-0.3,0.2-0.6,0.2-0.9c0-0.3-0.1-0.7-0.2-0.9c-0.1-0.3-0.3-0.5-0.4-0.7c-0.2-0.2-0.4-0.3-0.7-0.5s-0.6-0.2-0.9-0.2
		c-0.3,0-0.6,0.1-0.9,0.2c-0.3,0.1-0.5,0.3-0.7,0.5c-0.2,0.2-0.3,0.4-0.4,0.7s-0.2,0.6-0.2,0.8c0,0.3,0,0.7,0.1,0.9
		c0.1,0.3,0.2,0.5,0.4,0.7c0.2,0.2,0.4,0.4,0.7,0.5C313.2,336.4,313.5,336.4,313.8,336.4z"/>
</g>
<g>
	<path class="st0" d="M209.6,336.1c0.1,0,0.2,0,0.3,0.1c0.1,0.1,0.1,0.2,0.1,0.3v0.8h-6.8V337c0-0.1,0-0.2,0.1-0.3
		c0-0.1,0.1-0.2,0.2-0.3l3.3-3.4c0.3-0.3,0.5-0.6,0.7-0.8c0.2-0.3,0.4-0.5,0.6-0.8c0.2-0.3,0.3-0.5,0.4-0.8c0.1-0.3,0.1-0.6,0.1-0.9
		c0-0.3,0-0.6-0.1-0.8c-0.1-0.2-0.2-0.4-0.4-0.6s-0.4-0.3-0.6-0.3c-0.2-0.1-0.5-0.1-0.7-0.1c-0.3,0-0.5,0-0.7,0.1
		c-0.2,0.1-0.4,0.2-0.6,0.3c-0.2,0.1-0.3,0.3-0.4,0.5c-0.1,0.2-0.2,0.4-0.2,0.6c-0.1,0.2-0.1,0.3-0.2,0.3c-0.1,0.1-0.2,0.1-0.4,0
		l-0.7-0.1c0.1-0.5,0.2-0.9,0.4-1.3s0.4-0.7,0.7-0.9c0.3-0.3,0.6-0.4,1-0.6s0.8-0.2,1.2-0.2c0.4,0,0.8,0.1,1.2,0.2
		c0.4,0.1,0.7,0.3,1,0.6c0.3,0.3,0.5,0.6,0.6,0.9c0.2,0.4,0.2,0.8,0.2,1.3c0,0.4-0.1,0.8-0.2,1.1c-0.1,0.3-0.3,0.7-0.5,1
		c-0.2,0.3-0.4,0.6-0.7,0.9c-0.3,0.3-0.5,0.6-0.8,0.9l-2.7,2.9c0.2-0.1,0.4-0.1,0.6-0.1c0.2,0,0.4,0,0.6,0H209.6z"/>
	<path class="st0" d="M218.7,332.1c0,0.9-0.1,1.7-0.3,2.4c-0.2,0.7-0.5,1.2-0.8,1.7c-0.3,0.4-0.7,0.8-1.2,1
		c-0.5,0.2-0.9,0.3-1.5,0.3c-0.5,0-1-0.1-1.5-0.3s-0.8-0.6-1.2-1c-0.3-0.4-0.6-1-0.8-1.7c-0.2-0.7-0.3-1.5-0.3-2.4
		c0-0.9,0.1-1.7,0.3-2.4c0.2-0.7,0.5-1.3,0.8-1.7c0.3-0.5,0.7-0.8,1.2-1s0.9-0.3,1.5-0.3c0.5,0,1,0.1,1.5,0.3c0.5,0.2,0.8,0.6,1.2,1
		s0.6,1,0.8,1.7C218.6,330.3,218.7,331.1,218.7,332.1z M217.4,332.1c0-0.8-0.1-1.5-0.2-2.1c-0.1-0.6-0.3-1-0.5-1.3
		c-0.2-0.3-0.5-0.6-0.8-0.7c-0.3-0.1-0.6-0.2-0.9-0.2s-0.6,0.1-0.9,0.2c-0.3,0.1-0.5,0.4-0.8,0.7c-0.2,0.3-0.4,0.8-0.5,1.3
		c-0.1,0.6-0.2,1.2-0.2,2.1c0,0.8,0.1,1.5,0.2,2c0.1,0.6,0.3,1,0.5,1.3c0.2,0.3,0.5,0.6,0.8,0.7c0.3,0.1,0.6,0.2,0.9,0.2
		s0.6-0.1,0.9-0.2s0.5-0.4,0.8-0.7c0.2-0.3,0.4-0.8,0.5-1.3S217.4,332.9,217.4,332.1z"/>
	<path class="st0" d="M226.4,336.4v1h-5.5v-1h2.2v-7.3c0-0.2,0-0.4,0-0.7l-1.8,1.6c-0.1,0.1-0.1,0.1-0.2,0.1s-0.1,0-0.2,0
		s-0.1,0-0.1-0.1c0,0-0.1-0.1-0.1-0.1l-0.4-0.6l3-2.8h1v9.7H226.4z"/>
	<path class="st0" d="M229.9,330.8c0.5-0.1,1-0.2,1.5-0.2c0.5,0,1,0.1,1.4,0.2c0.4,0.2,0.7,0.4,1,0.7c0.3,0.3,0.5,0.6,0.6,1
		c0.1,0.4,0.2,0.8,0.2,1.3c0,0.6-0.1,1.1-0.3,1.5c-0.2,0.5-0.4,0.8-0.8,1.2c-0.3,0.3-0.7,0.6-1.2,0.7c-0.4,0.2-0.9,0.3-1.4,0.3
		c-0.3,0-0.6,0-0.9-0.1c-0.3-0.1-0.5-0.1-0.8-0.2c-0.2-0.1-0.5-0.2-0.7-0.4c-0.2-0.1-0.4-0.3-0.5-0.4l0.4-0.6
		c0.1-0.1,0.2-0.2,0.3-0.2c0.1,0,0.2,0,0.3,0.1c0.1,0.1,0.3,0.2,0.4,0.3c0.2,0.1,0.4,0.2,0.6,0.3s0.5,0.1,0.8,0.1
		c0.4,0,0.7-0.1,1-0.2s0.5-0.3,0.7-0.5c0.2-0.2,0.4-0.5,0.5-0.8c0.1-0.3,0.2-0.7,0.2-1c0-0.3,0-0.6-0.1-0.9
		c-0.1-0.3-0.2-0.5-0.4-0.7c-0.2-0.2-0.4-0.3-0.7-0.4c-0.3-0.1-0.6-0.2-1-0.2c-0.3,0-0.5,0-0.8,0.1s-0.6,0.1-0.9,0.2l-0.8-0.2l0.8-5
		h4.8v0.6c0,0.2-0.1,0.3-0.2,0.5s-0.3,0.2-0.6,0.2h-3.2L229.9,330.8z"/>
</g>
<g>
	<path class="st0" d="M126.8,336.1c0.1,0,0.2,0,0.3,0.1c0.1,0.1,0.1,0.2,0.1,0.3v0.8h-6.8V337c0-0.1,0-0.2,0.1-0.3
		c0-0.1,0.1-0.2,0.2-0.3l3.3-3.4c0.3-0.3,0.5-0.6,0.7-0.8c0.2-0.3,0.4-0.5,0.6-0.8c0.2-0.3,0.3-0.5,0.4-0.8c0.1-0.3,0.1-0.6,0.1-0.9
		c0-0.3,0-0.6-0.1-0.8c-0.1-0.2-0.2-0.4-0.4-0.6s-0.4-0.3-0.6-0.3c-0.2-0.1-0.5-0.1-0.7-0.1c-0.3,0-0.5,0-0.7,0.1
		c-0.2,0.1-0.4,0.2-0.6,0.3c-0.2,0.1-0.3,0.3-0.4,0.5c-0.1,0.2-0.2,0.4-0.2,0.6c-0.1,0.2-0.1,0.3-0.2,0.3c-0.1,0.1-0.2,0.1-0.4,0
		l-0.7-0.1c0.1-0.5,0.2-0.9,0.4-1.3s0.4-0.7,0.7-0.9c0.3-0.3,0.6-0.4,1-0.6s0.8-0.2,1.2-0.2c0.4,0,0.8,0.1,1.2,0.2
		c0.4,0.1,0.7,0.3,1,0.6c0.3,0.3,0.5,0.6,0.6,0.9c0.2,0.4,0.2,0.8,0.2,1.3c0,0.4-0.1,0.8-0.2,1.1c-0.1,0.3-0.3,0.7-0.5,1
		c-0.2,0.3-0.4,0.6-0.7,0.9c-0.3,0.3-0.5,0.6-0.8,0.9l-2.7,2.9c0.2-0.1,0.4-0.1,0.6-0.1c0.2,0,0.4,0,0.6,0H126.8z"/>
	<path class="st0" d="M135.9,332.1c0,0.9-0.1,1.7-0.3,2.4c-0.2,0.7-0.5,1.2-0.8,1.7c-0.3,0.4-0.7,0.8-1.2,1
		c-0.5,0.2-0.9,0.3-1.5,0.3c-0.5,0-1-0.1-1.5-0.3s-0.8-0.6-1.2-1c-0.3-0.4-0.6-1-0.8-1.7c-0.2-0.7-0.3-1.5-0.3-2.4
		c0-0.9,0.1-1.7,0.3-2.4c0.2-0.7,0.5-1.3,0.8-1.7c0.3-0.5,0.7-0.8,1.2-1s0.9-0.3,1.5-0.3c0.5,0,1,0.1,1.5,0.3c0.5,0.2,0.8,0.6,1.2,1
		s0.6,1,0.8,1.7C135.8,330.3,135.9,331.1,135.9,332.1z M134.6,332.1c0-0.8-0.1-1.5-0.2-2.1c-0.1-0.6-0.3-1-0.5-1.3
		c-0.2-0.3-0.5-0.6-0.8-0.7c-0.3-0.1-0.6-0.2-0.9-0.2s-0.6,0.1-0.9,0.2c-0.3,0.1-0.5,0.4-0.8,0.7c-0.2,0.3-0.4,0.8-0.5,1.3
		c-0.1,0.6-0.2,1.2-0.2,2.1c0,0.8,0.1,1.5,0.2,2c0.1,0.6,0.3,1,0.5,1.3c0.2,0.3,0.5,0.6,0.8,0.7c0.3,0.1,0.6,0.2,0.9,0.2
		s0.6-0.1,0.9-0.2s0.5-0.4,0.8-0.7c0.2-0.3,0.4-0.8,0.5-1.3S134.6,332.9,134.6,332.1z"/>
	<path class="st0" d="M143.6,336.4v1h-5.5v-1h2.2v-7.3c0-0.2,0-0.4,0-0.7l-1.8,1.6c-0.1,0.1-0.1,0.1-0.2,0.1s-0.1,0-0.2,0
		s-0.1,0-0.1-0.1c0,0-0.1-0.1-0.1-0.1l-0.4-0.6l3-2.8h1v9.7H143.6z"/>
	<path class="st0" d="M152.4,333.6v0.8c0,0.1,0,0.1-0.1,0.2c0,0.1-0.1,0.1-0.2,0.1h-1.3v2.8h-1.1v-2.8h-4.5c-0.1,0-0.2,0-0.2-0.1
		c-0.1-0.1-0.1-0.1-0.1-0.2l-0.1-0.7l5-6.9h1.2v6.8H152.4z M149.8,333.6v-4.4c0-0.1,0-0.3,0-0.4c0-0.2,0-0.3,0-0.5l-3.7,5.3H149.8z"
		/>
</g>
<g>
	<path class="st0" d="M43.3,336.1c0.1,0,0.2,0,0.3,0.1c0.1,0.1,0.1,0.2,0.1,0.3v0.8h-6.8V337c0-0.1,0-0.2,0.1-0.3
		c0-0.1,0.1-0.2,0.2-0.3l3.3-3.4c0.3-0.3,0.5-0.6,0.7-0.8c0.2-0.3,0.4-0.5,0.6-0.8c0.2-0.3,0.3-0.5,0.4-0.8c0.1-0.3,0.1-0.6,0.1-0.9
		c0-0.3,0-0.6-0.1-0.8c-0.1-0.2-0.2-0.4-0.4-0.6s-0.4-0.3-0.6-0.3c-0.2-0.1-0.5-0.1-0.7-0.1c-0.3,0-0.5,0-0.7,0.1
		c-0.2,0.1-0.4,0.2-0.6,0.3c-0.2,0.1-0.3,0.3-0.4,0.5c-0.1,0.2-0.2,0.4-0.2,0.6c-0.1,0.2-0.1,0.3-0.2,0.3c-0.1,0.1-0.2,0.1-0.4,0
		l-0.7-0.1c0.1-0.5,0.2-0.9,0.4-1.3s0.4-0.7,0.7-0.9c0.3-0.3,0.6-0.4,1-0.6s0.8-0.2,1.2-0.2c0.4,0,0.8,0.1,1.2,0.2
		c0.4,0.1,0.7,0.3,1,0.6c0.3,0.3,0.5,0.6,0.6,0.9c0.2,0.4,0.2,0.8,0.2,1.3c0,0.4-0.1,0.8-0.2,1.1c-0.1,0.3-0.3,0.7-0.5,1
		c-0.2,0.3-0.4,0.6-0.7,0.9c-0.3,0.3-0.5,0.6-0.8,0.9l-2.7,2.9c0.2-0.1,0.4-0.1,0.6-0.1c0.2,0,0.4,0,0.6,0H43.3z"/>
	<path class="st0" d="M52.3,332.1c0,0.9-0.1,1.7-0.3,2.4c-0.2,0.7-0.5,1.2-0.8,1.7c-0.3,0.4-0.7,0.8-1.2,1c-0.5,0.2-0.9,0.3-1.5,0.3
		c-0.5,0-1-0.1-1.5-0.3s-0.8-0.6-1.2-1c-0.3-0.4-0.6-1-0.8-1.7c-0.2-0.7-0.3-1.5-0.3-2.4c0-0.9,0.1-1.7,0.3-2.4
		c0.2-0.7,0.5-1.3,0.8-1.7c0.3-0.5,0.7-0.8,1.2-1s0.9-0.3,1.5-0.3c0.5,0,1,0.1,1.5,0.3c0.5,0.2,0.8,0.6,1.2,1s0.6,1,0.8,1.7
		C52.2,330.3,52.3,331.1,52.3,332.1z M51,332.1c0-0.8-0.1-1.5-0.2-2.1c-0.1-0.6-0.3-1-0.5-1.3c-0.2-0.3-0.5-0.6-0.8-0.7
		c-0.3-0.1-0.6-0.2-0.9-0.2s-0.6,0.1-0.9,0.2c-0.3,0.1-0.5,0.4-0.8,0.7c-0.2,0.3-0.4,0.8-0.5,1.3c-0.1,0.6-0.2,1.2-0.2,2.1
		c0,0.8,0.1,1.5,0.2,2c0.1,0.6,0.3,1,0.5,1.3c0.2,0.3,0.5,0.6,0.8,0.7c0.3,0.1,0.6,0.2,0.9,0.2s0.6-0.1,0.9-0.2s0.5-0.4,0.8-0.7
		c0.2-0.3,0.4-0.8,0.5-1.3S51,332.9,51,332.1z"/>
	<path class="st0" d="M60.6,332.1c0,0.9-0.1,1.7-0.3,2.4c-0.2,0.7-0.5,1.2-0.8,1.7c-0.3,0.4-0.7,0.8-1.2,1c-0.5,0.2-0.9,0.3-1.5,0.3
		c-0.5,0-1-0.1-1.5-0.3s-0.8-0.6-1.2-1c-0.3-0.4-0.6-1-0.8-1.7c-0.2-0.7-0.3-1.5-0.3-2.4c0-0.9,0.1-1.7,0.3-2.4
		c0.2-0.7,0.5-1.3,0.8-1.7c0.3-0.5,0.7-0.8,1.2-1s0.9-0.3,1.5-0.3c0.5,0,1,0.1,1.5,0.3c0.5,0.2,0.8,0.6,1.2,1s0.6,1,0.8,1.7
		C60.5,330.3,60.6,331.1,60.6,332.1z M59.3,332.1c0-0.8-0.1-1.5-0.2-2.1c-0.1-0.6-0.3-1-0.5-1.3c-0.2-0.3-0.5-0.6-0.8-0.7
		c-0.3-0.1-0.6-0.2-0.9-0.2s-0.6,0.1-0.9,0.2c-0.3,0.1-0.5,0.4-0.8,0.7c-0.2,0.3-0.4,0.8-0.5,1.3c-0.1,0.6-0.2,1.2-0.2,2.1
		c0,0.8,0.1,1.5,0.2,2c0.1,0.6,0.3,1,0.5,1.3c0.2,0.3,0.5,0.6,0.8,0.7c0.3,0.1,0.6,0.2,0.9,0.2s0.6-0.1,0.9-0.2s0.5-0.4,0.8-0.7
		c0.2-0.3,0.4-0.8,0.5-1.3S59.3,332.9,59.3,332.1z"/>
	<path class="st0" d="M63.6,330.8c0.5-0.1,1-0.2,1.5-0.2c0.5,0,1,0.1,1.4,0.2c0.4,0.2,0.7,0.4,1,0.7c0.3,0.3,0.5,0.6,0.6,1
		c0.1,0.4,0.2,0.8,0.2,1.3c0,0.6-0.1,1.1-0.3,1.5c-0.2,0.5-0.4,0.8-0.8,1.2c-0.3,0.3-0.7,0.6-1.2,0.7c-0.4,0.2-0.9,0.3-1.4,0.3
		c-0.3,0-0.6,0-0.9-0.1c-0.3-0.1-0.5-0.1-0.8-0.2c-0.2-0.1-0.5-0.2-0.7-0.4c-0.2-0.1-0.4-0.3-0.5-0.4l0.4-0.6
		c0.1-0.1,0.2-0.2,0.3-0.2c0.1,0,0.2,0,0.3,0.1c0.1,0.1,0.3,0.2,0.4,0.3c0.2,0.1,0.4,0.2,0.6,0.3s0.5,0.1,0.8,0.1
		c0.4,0,0.7-0.1,1-0.2s0.5-0.3,0.7-0.5c0.2-0.2,0.4-0.5,0.5-0.8c0.1-0.3,0.2-0.7,0.2-1c0-0.3,0-0.6-0.1-0.9
		c-0.1-0.3-0.2-0.5-0.4-0.7c-0.2-0.2-0.4-0.3-0.7-0.4c-0.3-0.1-0.6-0.2-1-0.2c-0.3,0-0.5,0-0.8,0.1s-0.6,0.1-0.9,0.2l-0.8-0.2l0.8-5
		H68v0.6c0,0.2-0.1,0.3-0.2,0.5s-0.3,0.2-0.6,0.2h-3.2L63.6,330.8z"/>
</g>
<line class="st1" x1="12.9" y1="55" x2="588.5" y2="55"/>
<line class="st1" x1="12.9" y1="88.3" x2="588.5" y2="88.3"/>
<line class="st1" x1="12.9" y1="119.9" x2="588.5" y2="119.9"/>
<line class="st1" x1="12.9" y1="152.9" x2="588.5" y2="152.9"/>
<line class="st1" x1="12.9" y1="182.2" x2="588.5" y2="182.2"/>
<line class="st1" x1="12.9" y1="215.4" x2="588.5" y2="215.4"/>
<line class="st1" x1="588.5" y1="245.7" x2="12.9" y2="245.7"/>
<line class="st1" x1="12.9" y1="280.1" x2="588.5" y2="280.1"/>
<line class="st2" x1="12.9" y1="311.4" x2="588.5" y2="311.4"/>
<line class="st2" x1="176.9" y1="315.6" x2="176.9" y2="309.9"/>
<line class="st2" x1="94" y1="315.6" x2="94" y2="309.9"/>
<line class="st2" x1="260.6" y1="315.6" x2="260.6" y2="309.9"/>
<line class="st2" x1="341.8" y1="315.6" x2="341.8" y2="309.9"/>
<line class="st2" x1="424.4" y1="315.6" x2="424.4" y2="309.9"/>
<line class="st2" x1="506.9" y1="315.6" x2="506.9" y2="309.9"/>
<g>
	<path class="st0" d="M161.5,19.9c0.1,0,0.2,0,0.2,0c0.1,0,0.2,0.1,0.2,0.1l1.3,1.4c-0.6,0.7-1.3,1.3-2.1,1.7
		c-0.9,0.4-1.9,0.6-3,0.6c-1.1,0-2-0.2-2.9-0.5c-0.8-0.4-1.6-0.9-2.2-1.5c-0.6-0.6-1-1.4-1.4-2.3c-0.3-0.9-0.5-1.8-0.5-2.9
		c0-1.1,0.2-2,0.5-2.9c0.3-0.9,0.8-1.6,1.4-2.3c0.6-0.6,1.4-1.1,2.2-1.5c0.9-0.4,1.8-0.5,2.9-0.5c0.5,0,1,0,1.5,0.1
		c0.5,0.1,0.9,0.2,1.3,0.4c0.4,0.2,0.8,0.4,1.1,0.6c0.3,0.2,0.6,0.5,0.9,0.8l-1.1,1.5c-0.1,0.1-0.2,0.2-0.3,0.2
		c-0.1,0.1-0.2,0.1-0.4,0.1c-0.1,0-0.2,0-0.3-0.1c-0.1-0.1-0.2-0.1-0.3-0.2s-0.2-0.2-0.4-0.2c-0.1-0.1-0.3-0.2-0.5-0.2
		s-0.4-0.1-0.7-0.2c-0.3-0.1-0.6-0.1-0.9-0.1c-0.5,0-1,0.1-1.5,0.3c-0.4,0.2-0.8,0.5-1.2,0.9c-0.3,0.4-0.6,0.9-0.8,1.4
		s-0.3,1.2-0.3,1.9c0,0.7,0.1,1.4,0.3,1.9c0.2,0.6,0.5,1,0.8,1.4c0.3,0.4,0.7,0.7,1.2,0.9c0.5,0.2,0.9,0.3,1.5,0.3
		c0.3,0,0.6,0,0.8,0c0.2,0,0.5-0.1,0.7-0.1c0.2-0.1,0.4-0.2,0.6-0.3c0.2-0.1,0.4-0.3,0.6-0.4c0.1-0.1,0.2-0.1,0.3-0.2
		C161.3,19.9,161.4,19.9,161.5,19.9z"/>
	<path class="st0" d="M177.4,23.5h-2.5c-0.3,0-0.5-0.1-0.7-0.2s-0.3-0.3-0.4-0.5l-0.8-2.5h-5.4l-0.8,2.5c-0.1,0.2-0.2,0.3-0.4,0.5
		c-0.2,0.1-0.4,0.2-0.7,0.2h-2.6l5.5-14.1h3.4L177.4,23.5z M172.2,18.1l-1.3-3.9c-0.1-0.2-0.2-0.5-0.3-0.9c-0.1-0.3-0.2-0.7-0.3-1.1
		c-0.1,0.4-0.2,0.8-0.3,1.1c-0.1,0.3-0.2,0.6-0.3,0.9l-1.3,3.8H172.2z"/>
	<path class="st0" d="M190,23.5h-3c-0.5,0-0.9-0.2-1.2-0.6l-2.3-4.1c-0.1-0.2-0.2-0.3-0.4-0.4c-0.1-0.1-0.3-0.1-0.6-0.1h-0.8v5.2
		h-3.3V9.4h4.6c1,0,1.9,0.1,2.6,0.3c0.7,0.2,1.3,0.5,1.8,0.9c0.5,0.4,0.8,0.8,1,1.3c0.2,0.5,0.3,1.1,0.3,1.7c0,0.5-0.1,0.9-0.2,1.3
		c-0.1,0.4-0.3,0.8-0.5,1.1c-0.2,0.3-0.5,0.7-0.9,0.9c-0.4,0.3-0.8,0.5-1.2,0.7c0.2,0.1,0.4,0.2,0.6,0.4c0.2,0.2,0.4,0.4,0.5,0.6
		L190,23.5z M183.1,16c0.4,0,0.8-0.1,1.1-0.2c0.3-0.1,0.6-0.3,0.8-0.5c0.2-0.2,0.3-0.4,0.4-0.7c0.1-0.3,0.1-0.6,0.1-0.9
		c0-0.6-0.2-1.1-0.6-1.5c-0.4-0.3-1-0.5-1.9-0.5h-1.3V16H183.1z"/>
	<path class="st0" d="M196.4,9.4c1,0,1.8,0.1,2.5,0.3c0.7,0.2,1.2,0.4,1.7,0.8c0.4,0.3,0.7,0.7,0.9,1.2c0.2,0.5,0.3,1,0.3,1.6
		c0,0.3,0,0.6-0.1,0.9s-0.2,0.6-0.4,0.8c-0.2,0.3-0.4,0.5-0.7,0.7c-0.3,0.2-0.7,0.4-1.1,0.6c0.9,0.2,1.6,0.6,2.1,1.1s0.7,1.2,0.7,2
		c0,0.6-0.1,1.2-0.3,1.7c-0.2,0.5-0.6,1-1,1.4s-1,0.7-1.7,0.9c-0.7,0.2-1.4,0.3-2.3,0.3h-5.6V9.4H196.4z M194.5,11.9v3.5h1.7
		c0.4,0,0.7,0,1-0.1c0.3-0.1,0.5-0.1,0.7-0.3c0.2-0.1,0.4-0.3,0.5-0.5c0.1-0.2,0.2-0.5,0.2-0.9c0-0.3,0-0.6-0.1-0.8
		c-0.1-0.2-0.2-0.4-0.4-0.5c-0.2-0.1-0.4-0.2-0.7-0.3s-0.6-0.1-1-0.1H194.5z M196.8,21.1c0.4,0,0.8-0.1,1.1-0.2
		c0.3-0.1,0.5-0.3,0.6-0.4c0.2-0.2,0.3-0.4,0.3-0.6c0.1-0.2,0.1-0.4,0.1-0.7c0-0.3,0-0.5-0.1-0.7c-0.1-0.2-0.2-0.4-0.3-0.5
		s-0.4-0.3-0.7-0.3s-0.6-0.1-1-0.1h-2.3v3.5H196.8z"/>
	<path class="st0" d="M218.1,16.5c0,1-0.2,2-0.5,2.8c-0.4,0.9-0.8,1.6-1.5,2.3s-1.4,1.2-2.3,1.5s-1.9,0.6-3,0.6s-2.1-0.2-3-0.6
		s-1.7-0.9-2.3-1.5s-1.1-1.4-1.5-2.3c-0.4-0.9-0.5-1.8-0.5-2.8s0.2-2,0.5-2.8c0.4-0.9,0.8-1.6,1.5-2.3c0.6-0.6,1.4-1.2,2.3-1.5
		s1.9-0.6,3-0.6s2.1,0.2,3,0.6s1.7,0.9,2.3,1.5c0.6,0.6,1.1,1.4,1.5,2.3S218.1,15.4,218.1,16.5z M214.7,16.5c0-0.7-0.1-1.3-0.3-1.9
		c-0.2-0.6-0.4-1-0.8-1.4s-0.8-0.7-1.2-0.9c-0.5-0.2-1.1-0.3-1.7-0.3c-0.6,0-1.2,0.1-1.7,0.3c-0.5,0.2-0.9,0.5-1.3,0.9
		c-0.3,0.4-0.6,0.9-0.8,1.4c-0.2,0.6-0.3,1.2-0.3,1.9c0,0.7,0.1,1.3,0.3,1.9c0.2,0.6,0.4,1,0.8,1.4c0.3,0.4,0.8,0.7,1.3,0.9
		s1.1,0.3,1.7,0.3c0.6,0,1.2-0.1,1.7-0.3s0.9-0.5,1.2-0.9s0.6-0.9,0.8-1.4C214.6,17.8,214.7,17.2,214.7,16.5z"/>
	<path class="st0" d="M232.3,9.4v14.1h-1.7c-0.3,0-0.5,0-0.6-0.1c-0.2-0.1-0.3-0.2-0.5-0.4l-6.7-8.4c0,0.3,0,0.5,0.1,0.7
		c0,0.2,0,0.5,0,0.7v7.6H220V9.4h1.7c0.1,0,0.3,0,0.4,0c0.1,0,0.2,0,0.3,0.1c0.1,0,0.2,0.1,0.2,0.1c0.1,0.1,0.2,0.2,0.2,0.3l6.7,8.5
		c0-0.3-0.1-0.5-0.1-0.8c0-0.3,0-0.5,0-0.7V9.4H232.3z"/>
	<path class="st0" d="M242.8,11.9v3.6h4.8V18h-4.8v5.5h-3.3V9.4h9.1v2.5H242.8z"/>
	<path class="st0" d="M264.3,16.5c0,1-0.2,2-0.5,2.8c-0.4,0.9-0.8,1.6-1.5,2.3s-1.4,1.2-2.3,1.5s-1.9,0.6-3,0.6s-2.1-0.2-3-0.6
		s-1.7-0.9-2.3-1.5s-1.1-1.4-1.5-2.3c-0.4-0.9-0.5-1.8-0.5-2.8s0.2-2,0.5-2.8c0.4-0.9,0.8-1.6,1.5-2.3c0.6-0.6,1.4-1.2,2.3-1.5
		s1.9-0.6,3-0.6s2.1,0.2,3,0.6s1.7,0.9,2.3,1.5c0.6,0.6,1.1,1.4,1.5,2.3S264.3,15.4,264.3,16.5z M260.9,16.5c0-0.7-0.1-1.3-0.3-1.9
		c-0.2-0.6-0.4-1-0.8-1.4s-0.8-0.7-1.2-0.9c-0.5-0.2-1.1-0.3-1.7-0.3c-0.6,0-1.2,0.1-1.7,0.3c-0.5,0.2-0.9,0.5-1.3,0.9
		c-0.3,0.4-0.6,0.9-0.8,1.4c-0.2,0.6-0.3,1.2-0.3,1.9c0,0.7,0.1,1.3,0.3,1.9c0.2,0.6,0.4,1,0.8,1.4c0.3,0.4,0.8,0.7,1.3,0.9
		s1.1,0.3,1.7,0.3c0.6,0,1.2-0.1,1.7-0.3s0.9-0.5,1.2-0.9s0.6-0.9,0.8-1.4C260.8,17.8,260.9,17.2,260.9,16.5z"/>
	<path class="st0" d="M280,16.5c0,1-0.2,2-0.5,2.8c-0.4,0.9-0.8,1.6-1.5,2.3s-1.4,1.2-2.3,1.5s-1.9,0.6-3,0.6s-2.1-0.2-3-0.6
		s-1.7-0.9-2.3-1.5s-1.1-1.4-1.5-2.3c-0.4-0.9-0.5-1.8-0.5-2.8s0.2-2,0.5-2.8c0.4-0.9,0.8-1.6,1.5-2.3c0.6-0.6,1.4-1.2,2.3-1.5
		s1.9-0.6,3-0.6s2.1,0.2,3,0.6s1.7,0.9,2.3,1.5c0.6,0.6,1.1,1.4,1.5,2.3S280,15.4,280,16.5z M276.7,16.5c0-0.7-0.1-1.3-0.3-1.9
		c-0.2-0.6-0.4-1-0.8-1.4s-0.8-0.7-1.2-0.9c-0.5-0.2-1.1-0.3-1.7-0.3c-0.6,0-1.2,0.1-1.7,0.3c-0.5,0.2-0.9,0.5-1.3,0.9
		c-0.3,0.4-0.6,0.9-0.8,1.4c-0.2,0.6-0.3,1.2-0.3,1.9c0,0.7,0.1,1.3,0.3,1.9c0.2,0.6,0.4,1,0.8,1.4c0.3,0.4,0.8,0.7,1.3,0.9
		s1.1,0.3,1.7,0.3c0.6,0,1.2-0.1,1.7-0.3s0.9-0.5,1.2-0.9s0.6-0.9,0.8-1.4C276.6,17.8,276.7,17.2,276.7,16.5z"/>
	<path class="st0" d="M291.8,12h-4v11.5h-3.3V12h-4V9.4h11.2V12z"/>
	<path class="st0" d="M298.4,9.4c1,0,1.9,0.1,2.6,0.4c0.7,0.2,1.3,0.6,1.8,1c0.5,0.4,0.8,0.9,1,1.5c0.2,0.6,0.3,1.2,0.3,1.8
		c0,0.7-0.1,1.4-0.3,1.9s-0.6,1.1-1,1.5c-0.5,0.4-1.1,0.7-1.8,1c-0.7,0.2-1.6,0.4-2.5,0.4h-1.7v4.7h-3.3V9.4H298.4z M298.4,16.3
		c0.9,0,1.5-0.2,1.8-0.6c0.4-0.4,0.6-1,0.6-1.7c0-0.3,0-0.6-0.1-0.9c-0.1-0.3-0.2-0.5-0.4-0.7c-0.2-0.2-0.4-0.3-0.7-0.4
		c-0.3-0.1-0.7-0.2-1.1-0.2h-1.7v4.5H298.4z"/>
	<path class="st0" d="M317.3,23.5h-3c-0.5,0-0.9-0.2-1.2-0.6l-2.3-4.1c-0.1-0.2-0.2-0.3-0.4-0.4s-0.3-0.1-0.6-0.1H309v5.2h-3.3V9.4
		h4.6c1,0,1.9,0.1,2.6,0.3s1.3,0.5,1.8,0.9c0.5,0.4,0.8,0.8,1,1.3c0.2,0.5,0.3,1.1,0.3,1.7c0,0.5-0.1,0.9-0.2,1.3
		c-0.1,0.4-0.3,0.8-0.5,1.1c-0.2,0.3-0.5,0.7-0.9,0.9c-0.4,0.3-0.8,0.5-1.2,0.7c0.2,0.1,0.4,0.2,0.6,0.4s0.4,0.4,0.5,0.6L317.3,23.5
		z M310.4,16c0.4,0,0.8-0.1,1.1-0.2c0.3-0.1,0.6-0.3,0.8-0.5c0.2-0.2,0.3-0.4,0.4-0.7c0.1-0.3,0.1-0.6,0.1-0.9
		c0-0.6-0.2-1.1-0.6-1.5c-0.4-0.3-1-0.5-1.9-0.5H309V16H310.4z"/>
	<path class="st0" d="M321.8,23.5h-3.3V9.4h3.3V23.5z"/>
	<path class="st0" d="M336.9,9.4v14.1h-1.7c-0.3,0-0.5,0-0.6-0.1c-0.2-0.1-0.3-0.2-0.5-0.4l-6.7-8.4c0,0.3,0,0.5,0.1,0.7
		s0,0.5,0,0.7v7.6h-2.9V9.4h1.7c0.1,0,0.3,0,0.4,0c0.1,0,0.2,0,0.3,0.1c0.1,0,0.2,0.1,0.2,0.1c0.1,0.1,0.2,0.2,0.2,0.3l6.7,8.5
		c0-0.3-0.1-0.5-0.1-0.8c0-0.3,0-0.5,0-0.7V9.4H336.9z"/>
	<path class="st0" d="M349.8,12h-4v11.5h-3.3V12h-4V9.4h11.2V12z"/>
	<path class="st0" d="M360.3,9.4c1,0,1.8,0.1,2.6,0.4s1.3,0.6,1.8,1c0.5,0.4,0.8,0.9,1,1.5s0.3,1.2,0.3,1.8c0,0.7-0.1,1.4-0.3,1.9
		c-0.2,0.6-0.6,1.1-1,1.5c-0.5,0.4-1.1,0.7-1.8,1c-0.7,0.2-1.6,0.4-2.5,0.4h-1.7v4.7h-3.3V9.4H360.3z M360.3,16.3
		c0.9,0,1.5-0.2,1.8-0.6c0.4-0.4,0.6-1,0.6-1.7c0-0.3,0-0.6-0.1-0.9c-0.1-0.3-0.2-0.5-0.4-0.7c-0.2-0.2-0.4-0.3-0.7-0.4
		c-0.3-0.1-0.7-0.2-1.1-0.2h-1.7v4.5H360.3z"/>
	<path class="st0" d="M370.9,11.9v3.3h4.4v2.4h-4.4V21h5.8v2.5h-9.1V9.4h9.1v2.5H370.9z"/>
	<path class="st0" d="M390.3,23.5h-3c-0.5,0-0.9-0.2-1.2-0.6l-2.3-4.1c-0.1-0.2-0.2-0.3-0.4-0.4s-0.3-0.1-0.6-0.1H382v5.2h-3.3V9.4
		h4.6c1,0,1.9,0.1,2.6,0.3s1.3,0.5,1.8,0.9c0.5,0.4,0.8,0.8,1,1.3c0.2,0.5,0.3,1.1,0.3,1.7c0,0.5-0.1,0.9-0.2,1.3
		c-0.1,0.4-0.3,0.8-0.5,1.1c-0.2,0.3-0.5,0.7-0.9,0.9c-0.4,0.3-0.8,0.5-1.2,0.7c0.2,0.1,0.4,0.2,0.6,0.4s0.4,0.4,0.5,0.6L390.3,23.5
		z M383.3,16c0.4,0,0.8-0.1,1.1-0.2c0.3-0.1,0.6-0.3,0.8-0.5c0.2-0.2,0.3-0.4,0.4-0.7c0.1-0.3,0.1-0.6,0.1-0.9
		c0-0.6-0.2-1.1-0.6-1.5c-0.4-0.3-1-0.5-1.9-0.5H382V16H383.3z"/>
	<path class="st0" d="M401.2,9.4c1,0,1.8,0.1,2.5,0.3c0.7,0.2,1.2,0.4,1.7,0.8s0.7,0.7,0.9,1.2s0.3,1,0.3,1.6c0,0.3,0,0.6-0.1,0.9
		c-0.1,0.3-0.2,0.6-0.4,0.8c-0.2,0.3-0.4,0.5-0.7,0.7c-0.3,0.2-0.7,0.4-1.1,0.6c0.9,0.2,1.6,0.6,2.1,1.1c0.4,0.5,0.7,1.2,0.7,2
		c0,0.6-0.1,1.2-0.3,1.7s-0.6,1-1,1.4c-0.4,0.4-1,0.7-1.7,0.9c-0.7,0.2-1.4,0.3-2.3,0.3H396V9.4H401.2z M399.2,11.9v3.5h1.7
		c0.4,0,0.7,0,1-0.1c0.3-0.1,0.5-0.1,0.7-0.3c0.2-0.1,0.4-0.3,0.5-0.5s0.2-0.5,0.2-0.9c0-0.3,0-0.6-0.1-0.8
		c-0.1-0.2-0.2-0.4-0.4-0.5c-0.2-0.1-0.4-0.2-0.7-0.3c-0.3-0.1-0.6-0.1-1-0.1H399.2z M401.5,21.1c0.4,0,0.8-0.1,1.1-0.2
		s0.5-0.3,0.6-0.4c0.2-0.2,0.3-0.4,0.3-0.6c0.1-0.2,0.1-0.4,0.1-0.7c0-0.3,0-0.5-0.1-0.7c-0.1-0.2-0.2-0.4-0.3-0.5
		c-0.2-0.1-0.4-0.3-0.7-0.3c-0.3-0.1-0.6-0.1-1-0.1h-2.3v3.5H401.5z"/>
	<path class="st0" d="M412.2,11.9v3.3h4.4v2.4h-4.4V21h5.8v2.5h-9.1V9.4h9.1v2.5H412.2z"/>
	<path class="st0" d="M431.6,23.5h-3c-0.5,0-0.9-0.2-1.2-0.6l-2.3-4.1c-0.1-0.2-0.2-0.3-0.4-0.4s-0.3-0.1-0.6-0.1h-0.8v5.2H420V9.4
		h4.6c1,0,1.9,0.1,2.6,0.3s1.3,0.5,1.8,0.9c0.5,0.4,0.8,0.8,1,1.3c0.2,0.5,0.3,1.1,0.3,1.7c0,0.5-0.1,0.9-0.2,1.3
		c-0.1,0.4-0.3,0.8-0.5,1.1c-0.2,0.3-0.5,0.7-0.9,0.9c-0.4,0.3-0.8,0.5-1.2,0.7c0.2,0.1,0.4,0.2,0.6,0.4s0.4,0.4,0.5,0.6L431.6,23.5
		z M424.6,16c0.4,0,0.8-0.1,1.1-0.2c0.3-0.1,0.6-0.3,0.8-0.5c0.2-0.2,0.3-0.4,0.4-0.7c0.1-0.3,0.1-0.6,0.1-0.9
		c0-0.6-0.2-1.1-0.6-1.5c-0.4-0.3-1-0.5-1.9-0.5h-1.3V16H424.6z"/>
	<path class="st0" d="M442.7,12h-4v11.5h-3.3V12h-4V9.4h11.2V12z"/>
	<path class="st0" d="M456.6,9.4v14.1h-3.3v-6h-5.7v6h-3.3V9.4h3.3v5.9h5.7V9.4H456.6z"/>
</g>
<g>
	<path class="st3" d="M45.3,37.4c0.1-0.4,0.2-0.7,0.3-1c0.2-0.3,0.3-0.5,0.6-0.7c0.2-0.2,0.5-0.3,0.8-0.4c0.3-0.1,0.6-0.1,0.9-0.1
		c0.4,0,0.7,0.1,1,0.2c0.3,0.1,0.5,0.2,0.7,0.4c0.2,0.2,0.3,0.4,0.4,0.6c0.1,0.2,0.1,0.5,0.1,0.8c0,0.2,0,0.5-0.1,0.6
		s-0.1,0.3-0.2,0.5c-0.1,0.1-0.2,0.2-0.3,0.3c-0.1,0.1-0.3,0.2-0.5,0.2c0.8,0.3,1.2,0.9,1.2,1.7c0,0.4-0.1,0.8-0.2,1.1
		c-0.1,0.3-0.3,0.5-0.6,0.7c-0.2,0.2-0.5,0.3-0.8,0.4c-0.3,0.1-0.6,0.1-1,0.1c-0.3,0-0.7,0-0.9-0.1c-0.3-0.1-0.5-0.2-0.7-0.4
		c-0.2-0.2-0.4-0.4-0.6-0.6c-0.2-0.3-0.3-0.6-0.4-0.9l0.7-0.3c0.2-0.1,0.3-0.1,0.5-0.1c0.2,0,0.3,0.1,0.3,0.2
		c0.1,0.3,0.3,0.5,0.5,0.6c0.2,0.1,0.4,0.2,0.6,0.2c0.2,0,0.3,0,0.5-0.1c0.1-0.1,0.2-0.1,0.3-0.2c0.1-0.1,0.1-0.2,0.2-0.3
		c0-0.1,0.1-0.2,0.1-0.4c0-0.2,0-0.3,0-0.4c0-0.1-0.1-0.2-0.2-0.3c-0.1-0.1-0.2-0.2-0.5-0.2c-0.2-0.1-0.5-0.1-0.8-0.1v-1.1
		c0.3,0,0.5,0,0.7-0.1c0.2,0,0.3-0.1,0.4-0.2c0.1-0.1,0.2-0.2,0.2-0.3c0-0.1,0-0.3,0-0.4c0-0.3-0.1-0.5-0.2-0.7
		c-0.1-0.2-0.3-0.2-0.6-0.2c-0.2,0-0.4,0.1-0.6,0.2s-0.3,0.3-0.3,0.5c-0.1,0.2-0.2,0.3-0.3,0.4c-0.1,0.1-0.3,0.1-0.5,0L45.3,37.4z"
		/>
	<path class="st3" d="M53.3,38.1c0.2-0.1,0.5-0.1,0.8-0.1c0.3,0,0.5,0,0.8,0.1c0.3,0.1,0.5,0.2,0.7,0.4c0.2,0.2,0.4,0.4,0.5,0.7
		c0.1,0.3,0.2,0.6,0.2,1c0,0.4-0.1,0.7-0.2,1c-0.1,0.3-0.3,0.6-0.5,0.8c-0.2,0.2-0.5,0.4-0.8,0.6c-0.3,0.1-0.7,0.2-1.1,0.2
		c-0.4,0-0.8-0.1-1.1-0.2c-0.3-0.1-0.6-0.3-0.8-0.6c-0.2-0.2-0.4-0.5-0.5-0.9c-0.1-0.3-0.2-0.7-0.2-1.1c0-0.7,0.3-1.5,0.8-2.3
		l1.6-2.3c0.1-0.1,0.2-0.2,0.3-0.3c0.1-0.1,0.3-0.1,0.5-0.1h1.4l-2.2,2.7L53.3,38.1z M53.5,41.6c0.2,0,0.3,0,0.4-0.1
		c0.1-0.1,0.3-0.1,0.4-0.3c0.1-0.1,0.2-0.2,0.2-0.4s0.1-0.3,0.1-0.5c0-0.2,0-0.4-0.1-0.5c-0.1-0.2-0.1-0.3-0.2-0.4
		c-0.1-0.1-0.2-0.2-0.4-0.2s-0.3-0.1-0.5-0.1c-0.2,0-0.3,0-0.4,0.1s-0.2,0.1-0.3,0.2c-0.1,0.1-0.2,0.2-0.2,0.4
		c-0.1,0.1-0.1,0.3-0.1,0.5c0,0.2,0,0.4,0.1,0.5c0,0.1,0.1,0.3,0.2,0.4s0.2,0.2,0.3,0.2C53.2,41.6,53.3,41.6,53.5,41.6z"/>
	<path class="st3" d="M61.3,41.4c0.2,0,0.3,0,0.4,0.1c0.1,0.1,0.1,0.2,0.1,0.4v0.9h-5.1v-0.5c0-0.1,0-0.2,0.1-0.3
		c0-0.1,0.1-0.2,0.2-0.3l2.1-2.2c0.2-0.2,0.3-0.4,0.5-0.5s0.2-0.3,0.3-0.5c0.1-0.2,0.2-0.3,0.2-0.5c0-0.2,0.1-0.3,0.1-0.5
		c0-0.3-0.1-0.5-0.2-0.7s-0.3-0.2-0.6-0.2c-0.2,0-0.4,0.1-0.6,0.2s-0.3,0.3-0.3,0.5c-0.1,0.2-0.2,0.3-0.3,0.4
		c-0.1,0.1-0.3,0.1-0.5,0l-0.8-0.2c0.1-0.4,0.2-0.7,0.3-1s0.3-0.5,0.6-0.7c0.2-0.2,0.5-0.3,0.8-0.4c0.3-0.1,0.6-0.1,0.9-0.1
		c0.4,0,0.7,0.1,1,0.2c0.3,0.1,0.5,0.3,0.7,0.5c0.2,0.2,0.4,0.4,0.5,0.7c0.1,0.3,0.2,0.6,0.2,0.9c0,0.3,0,0.5-0.1,0.8
		s-0.2,0.5-0.3,0.7s-0.3,0.4-0.5,0.6c-0.2,0.2-0.4,0.4-0.5,0.6l-1.4,1.5c0.2-0.1,0.4-0.1,0.5-0.1c0.2,0,0.3,0,0.5,0H61.3z"/>
</g>
<g>
	<path class="st3" d="M150.4,171.6c0.2,0,0.3,0,0.4,0.1c0.1,0.1,0.1,0.2,0.1,0.4v0.9h-5.1v-0.5c0-0.1,0-0.2,0.1-0.3
		c0-0.1,0.1-0.2,0.2-0.3l2.1-2.2c0.2-0.2,0.3-0.4,0.5-0.5s0.2-0.3,0.3-0.5c0.1-0.2,0.2-0.3,0.2-0.5c0-0.2,0.1-0.3,0.1-0.5
		c0-0.3-0.1-0.5-0.2-0.7s-0.3-0.2-0.6-0.2c-0.2,0-0.4,0.1-0.6,0.2s-0.3,0.3-0.3,0.5c-0.1,0.2-0.2,0.3-0.3,0.4
		c-0.1,0.1-0.3,0.1-0.5,0l-0.8-0.2c0.1-0.4,0.2-0.7,0.3-1s0.3-0.5,0.6-0.7c0.2-0.2,0.5-0.3,0.8-0.4c0.3-0.1,0.6-0.1,0.9-0.1
		c0.4,0,0.7,0.1,1,0.2c0.3,0.1,0.5,0.3,0.7,0.5c0.2,0.2,0.4,0.4,0.5,0.7c0.1,0.3,0.2,0.6,0.2,0.9c0,0.3,0,0.5-0.1,0.8
		s-0.2,0.5-0.3,0.7s-0.3,0.4-0.5,0.6c-0.2,0.2-0.4,0.4-0.5,0.6l-1.4,1.5c0.2-0.1,0.4-0.1,0.5-0.1s0.3,0,0.5,0H150.4z"/>
	<path class="st3" d="M155.5,169.1c0.2,0.1,0.4,0.2,0.6,0.3s0.3,0.3,0.4,0.4c0.1,0.2,0.2,0.3,0.2,0.5c0,0.2,0.1,0.4,0.1,0.6
		c0,0.3-0.1,0.7-0.2,0.9s-0.3,0.5-0.5,0.7c-0.2,0.2-0.5,0.3-0.8,0.5c-0.3,0.1-0.7,0.2-1.1,0.2s-0.7-0.1-1.1-0.2
		c-0.3-0.1-0.6-0.3-0.8-0.5c-0.2-0.2-0.4-0.4-0.5-0.7s-0.2-0.6-0.2-0.9c0-0.2,0-0.4,0.1-0.6c0-0.2,0.1-0.4,0.2-0.5
		c0.1-0.2,0.2-0.3,0.4-0.4c0.2-0.1,0.3-0.2,0.6-0.3c-0.3-0.2-0.6-0.4-0.7-0.6c-0.2-0.3-0.2-0.6-0.2-1c0-0.3,0.1-0.6,0.2-0.8
		c0.1-0.3,0.3-0.5,0.5-0.7c0.2-0.2,0.5-0.3,0.7-0.4c0.3-0.1,0.6-0.2,0.9-0.2s0.7,0.1,0.9,0.2c0.3,0.1,0.5,0.3,0.7,0.4
		c0.2,0.2,0.4,0.4,0.5,0.7c0.1,0.3,0.2,0.5,0.2,0.8c0,0.4-0.1,0.7-0.2,1C156.1,168.8,155.9,169,155.5,169.1z M154.2,172
		c0.2,0,0.3,0,0.4-0.1s0.2-0.1,0.3-0.2c0.1-0.1,0.1-0.2,0.2-0.3c0-0.1,0.1-0.3,0.1-0.4c0-0.2,0-0.3,0-0.4s-0.1-0.3-0.2-0.3
		c-0.1-0.1-0.2-0.2-0.3-0.2c-0.1-0.1-0.3-0.1-0.5-0.1c-0.2,0-0.3,0-0.5,0.1c-0.1,0.1-0.2,0.1-0.3,0.2s-0.1,0.2-0.2,0.3s0,0.3,0,0.4
		c0,0.2,0,0.3,0.1,0.4c0,0.1,0.1,0.2,0.2,0.3c0.1,0.1,0.2,0.2,0.3,0.2S154,172,154.2,172z M154.2,166.6c-0.2,0-0.3,0-0.4,0.1
		c-0.1,0.1-0.2,0.1-0.3,0.2s-0.1,0.2-0.1,0.3s0,0.2,0,0.3c0,0.1,0,0.3,0,0.4c0,0.1,0.1,0.2,0.1,0.3c0.1,0.1,0.1,0.2,0.3,0.2
		c0.1,0.1,0.3,0.1,0.4,0.1c0.2,0,0.3,0,0.4-0.1s0.2-0.1,0.3-0.2c0.1-0.1,0.1-0.2,0.1-0.3c0-0.1,0-0.3,0-0.4c0-0.1,0-0.2,0-0.3
		s-0.1-0.2-0.1-0.3c-0.1-0.1-0.2-0.2-0.3-0.2S154.3,166.6,154.2,166.6z"/>
	<path class="st3" d="M160.1,170.2c0-0.1,0.1-0.1,0.1-0.2c0-0.1,0.1-0.1,0.1-0.2c-0.3,0.2-0.7,0.3-1,0.3c-0.2,0-0.5,0-0.7-0.1
		c-0.2-0.1-0.4-0.2-0.6-0.4c-0.2-0.2-0.3-0.4-0.5-0.7c-0.1-0.3-0.2-0.6-0.2-1c0-0.3,0.1-0.7,0.2-1c0.1-0.3,0.3-0.6,0.5-0.8
		s0.5-0.4,0.8-0.5c0.3-0.1,0.7-0.2,1-0.2c0.4,0,0.7,0.1,1.1,0.2c0.3,0.1,0.6,0.3,0.8,0.5c0.2,0.2,0.4,0.5,0.5,0.8
		c0.1,0.3,0.2,0.7,0.2,1c0,0.5-0.1,0.9-0.2,1.3c-0.1,0.4-0.3,0.8-0.6,1.1l-1.6,2.3c-0.1,0.1-0.2,0.2-0.3,0.3
		c-0.1,0.1-0.3,0.1-0.5,0.1h-1.4L160.1,170.2z M158.9,167.8c0,0.8,0.3,1.1,1,1.1c0.3,0,0.6-0.1,0.8-0.3c0.2-0.2,0.3-0.5,0.3-0.8
		c0-0.2,0-0.3-0.1-0.5c-0.1-0.1-0.1-0.3-0.2-0.4c-0.1-0.1-0.2-0.2-0.3-0.2s-0.3-0.1-0.4-0.1c-0.2,0-0.3,0-0.4,0.1
		c-0.1,0.1-0.2,0.1-0.3,0.2c-0.1,0.1-0.1,0.2-0.2,0.4C158.9,167.5,158.9,167.7,158.9,167.8z"/>
</g>
<g>
	<path class="st3" d="M229.2,229.5c0.2,0,0.3,0,0.4,0.1c0.1,0.1,0.1,0.2,0.1,0.4v0.9h-5.1v-0.5c0-0.1,0-0.2,0.1-0.3
		c0-0.1,0.1-0.2,0.2-0.3l2.1-2.2c0.2-0.2,0.3-0.4,0.5-0.5c0.1-0.2,0.2-0.3,0.3-0.5s0.2-0.3,0.2-0.5c0-0.2,0.1-0.3,0.1-0.5
		c0-0.3-0.1-0.5-0.2-0.7c-0.1-0.2-0.3-0.2-0.6-0.2c-0.2,0-0.4,0.1-0.6,0.2s-0.3,0.3-0.3,0.5c-0.1,0.2-0.2,0.3-0.3,0.4
		s-0.3,0.1-0.5,0l-0.8-0.2c0.1-0.4,0.2-0.7,0.3-1c0.2-0.3,0.3-0.5,0.6-0.7c0.2-0.2,0.5-0.3,0.8-0.4c0.3-0.1,0.6-0.1,0.9-0.1
		c0.4,0,0.7,0.1,1,0.2s0.5,0.3,0.7,0.5c0.2,0.2,0.4,0.4,0.5,0.7s0.2,0.6,0.2,0.9c0,0.3,0,0.5-0.1,0.8c-0.1,0.2-0.2,0.5-0.3,0.7
		c-0.1,0.2-0.3,0.4-0.5,0.6c-0.2,0.2-0.4,0.4-0.5,0.6l-1.4,1.5c0.2-0.1,0.4-0.1,0.5-0.1s0.3,0,0.5,0H229.2z"/>
	<path class="st3" d="M232.3,226.1c0.1,0,0.3,0,0.4-0.1c0.1,0,0.2,0,0.4,0c0.4,0,0.7,0.1,1,0.2c0.3,0.1,0.5,0.3,0.7,0.5
		c0.2,0.2,0.3,0.5,0.5,0.7c0.1,0.3,0.2,0.6,0.2,0.9c0,0.4-0.1,0.8-0.2,1.1s-0.3,0.6-0.6,0.9s-0.5,0.4-0.9,0.6s-0.7,0.2-1.1,0.2
		c-0.2,0-0.5,0-0.7-0.1c-0.2-0.1-0.4-0.1-0.6-0.2c-0.2-0.1-0.4-0.2-0.5-0.3c-0.2-0.1-0.3-0.2-0.4-0.4l0.5-0.7c0-0.1,0.1-0.1,0.2-0.2
		c0.1,0,0.1-0.1,0.2-0.1c0.1,0,0.2,0,0.3,0.1c0.1,0.1,0.2,0.1,0.3,0.2c0.1,0.1,0.2,0.1,0.4,0.2c0.1,0.1,0.3,0.1,0.5,0.1
		s0.4,0,0.5-0.1s0.3-0.2,0.4-0.3c0.1-0.1,0.2-0.3,0.2-0.4c0-0.2,0.1-0.3,0.1-0.5c0-0.4-0.1-0.6-0.3-0.8s-0.5-0.3-0.8-0.3
		c-0.3,0-0.6,0.1-1,0.2l-1-0.3l0.6-3.8h3.7v0.7c0,0.1,0,0.2,0,0.3c0,0.1-0.1,0.2-0.2,0.2c-0.1,0.1-0.2,0.1-0.3,0.2
		c-0.1,0-0.3,0.1-0.4,0.1h-1.7L232.3,226.1z"/>
	<path class="st3" d="M241.4,228v0.9c0,0.1,0,0.1-0.1,0.2c-0.1,0.1-0.1,0.1-0.2,0.1h-0.4v1.7h-1.3v-1.7h-2.9c-0.1,0-0.2,0-0.3-0.1
		c-0.1-0.1-0.1-0.1-0.1-0.2l-0.2-0.8l3.4-4.7h1.5v4.7H241.4z M239.3,228v-2c0-0.1,0-0.3,0-0.4c0-0.1,0-0.3,0-0.4l-1.9,2.8H239.3z"/>
</g>
<g>
	<path class="st3" d="M306.3,259.3c0.2,0,0.3,0,0.4,0.1c0.1,0.1,0.1,0.2,0.1,0.4v0.9h-5.1v-0.5c0-0.1,0-0.2,0.1-0.3
		c0-0.1,0.1-0.2,0.2-0.3l2.1-2.2c0.2-0.2,0.3-0.4,0.5-0.5c0.1-0.2,0.2-0.3,0.3-0.5c0.1-0.2,0.2-0.3,0.2-0.5s0.1-0.3,0.1-0.5
		c0-0.3-0.1-0.5-0.2-0.7c-0.1-0.2-0.3-0.2-0.6-0.2c-0.2,0-0.4,0.1-0.6,0.2c-0.2,0.1-0.3,0.3-0.3,0.5c-0.1,0.2-0.2,0.3-0.3,0.4
		c-0.1,0.1-0.3,0.1-0.5,0l-0.8-0.2c0.1-0.4,0.2-0.7,0.3-1c0.2-0.3,0.3-0.5,0.6-0.7c0.2-0.2,0.5-0.3,0.8-0.4c0.3-0.1,0.6-0.1,0.9-0.1
		c0.4,0,0.7,0.1,1,0.2s0.5,0.3,0.7,0.5c0.2,0.2,0.4,0.4,0.5,0.7c0.1,0.3,0.2,0.6,0.2,0.9c0,0.3,0,0.5-0.1,0.8
		c-0.1,0.2-0.2,0.5-0.3,0.7c-0.1,0.2-0.3,0.4-0.5,0.6c-0.2,0.2-0.4,0.4-0.5,0.6l-1.4,1.5c0.2-0.1,0.4-0.1,0.5-0.1s0.3,0,0.5,0H306.3
		z"/>
	<path class="st3" d="M307.6,255.3c0.1-0.4,0.2-0.7,0.3-1c0.2-0.3,0.3-0.5,0.6-0.7c0.2-0.2,0.5-0.3,0.8-0.4c0.3-0.1,0.6-0.1,0.9-0.1
		c0.4,0,0.7,0.1,1,0.2c0.3,0.1,0.5,0.2,0.7,0.4s0.3,0.4,0.4,0.6s0.1,0.5,0.1,0.8c0,0.2,0,0.5-0.1,0.6c0,0.2-0.1,0.3-0.2,0.5
		c-0.1,0.1-0.2,0.2-0.3,0.3s-0.3,0.2-0.5,0.2c0.8,0.3,1.2,0.9,1.2,1.7c0,0.4-0.1,0.8-0.2,1.1c-0.1,0.3-0.3,0.5-0.6,0.7
		c-0.2,0.2-0.5,0.3-0.8,0.4c-0.3,0.1-0.6,0.1-1,0.1c-0.3,0-0.7,0-0.9-0.1c-0.3-0.1-0.5-0.2-0.7-0.4s-0.4-0.4-0.6-0.6
		c-0.2-0.3-0.3-0.6-0.4-0.9l0.7-0.3c0.2-0.1,0.3-0.1,0.5-0.1c0.2,0,0.3,0.1,0.3,0.2c0.1,0.3,0.3,0.5,0.5,0.6s0.4,0.2,0.6,0.2
		c0.2,0,0.3,0,0.5-0.1s0.2-0.1,0.3-0.2s0.1-0.2,0.2-0.3c0-0.1,0.1-0.2,0.1-0.4c0-0.2,0-0.3,0-0.4c0-0.1-0.1-0.2-0.2-0.3
		c-0.1-0.1-0.2-0.2-0.5-0.2s-0.5-0.1-0.8-0.1v-1.1c0.3,0,0.5,0,0.7-0.1c0.2,0,0.3-0.1,0.4-0.2c0.1-0.1,0.2-0.2,0.2-0.3s0-0.3,0-0.4
		c0-0.3-0.1-0.5-0.2-0.7c-0.1-0.2-0.3-0.2-0.6-0.2c-0.2,0-0.4,0.1-0.6,0.2c-0.2,0.1-0.3,0.3-0.3,0.5c-0.1,0.2-0.2,0.3-0.3,0.4
		c-0.1,0.1-0.3,0.1-0.5,0L307.6,255.3z"/>
	<path class="st3" d="M315.2,255.8c0.1,0,0.3,0,0.4-0.1s0.2,0,0.4,0c0.4,0,0.7,0.1,1,0.2c0.3,0.1,0.5,0.3,0.7,0.5
		c0.2,0.2,0.3,0.5,0.5,0.7c0.1,0.3,0.2,0.6,0.2,0.9c0,0.4-0.1,0.8-0.2,1.1c-0.1,0.3-0.3,0.6-0.6,0.9c-0.2,0.2-0.5,0.4-0.9,0.6
		c-0.3,0.1-0.7,0.2-1.1,0.2c-0.2,0-0.5,0-0.7-0.1c-0.2-0.1-0.4-0.1-0.6-0.2s-0.4-0.2-0.5-0.3c-0.2-0.1-0.3-0.2-0.4-0.4l0.5-0.7
		c0-0.1,0.1-0.1,0.2-0.2c0.1,0,0.1-0.1,0.2-0.1c0.1,0,0.2,0,0.3,0.1c0.1,0.1,0.2,0.1,0.3,0.2c0.1,0.1,0.2,0.1,0.4,0.2
		s0.3,0.1,0.5,0.1c0.2,0,0.4,0,0.5-0.1s0.3-0.2,0.4-0.3c0.1-0.1,0.2-0.3,0.2-0.4c0-0.2,0.1-0.3,0.1-0.5c0-0.4-0.1-0.6-0.3-0.8
		s-0.5-0.3-0.8-0.3c-0.3,0-0.6,0.1-1,0.2l-1-0.3l0.6-3.8h3.7v0.7c0,0.1,0,0.2,0,0.3c0,0.1-0.1,0.2-0.2,0.2c-0.1,0.1-0.2,0.1-0.3,0.2
		c-0.1,0-0.3,0.1-0.4,0.1h-1.7L315.2,255.8z"/>
</g>
<g>
	<path class="st3" d="M544.1,259.3c0.2,0,0.3,0,0.4,0.1c0.1,0.1,0.1,0.2,0.1,0.4v0.9h-5.1v-0.5c0-0.1,0-0.2,0.1-0.3
		c0-0.1,0.1-0.2,0.2-0.3l2.1-2.2c0.2-0.2,0.3-0.4,0.5-0.5c0.1-0.2,0.2-0.3,0.3-0.5c0.1-0.2,0.2-0.3,0.2-0.5s0.1-0.3,0.1-0.5
		c0-0.3-0.1-0.5-0.2-0.7c-0.1-0.2-0.3-0.2-0.6-0.2c-0.2,0-0.4,0.1-0.6,0.2c-0.2,0.1-0.3,0.3-0.3,0.5c-0.1,0.2-0.2,0.3-0.3,0.4
		c-0.1,0.1-0.3,0.1-0.5,0l-0.8-0.2c0.1-0.4,0.2-0.7,0.3-1c0.2-0.3,0.3-0.5,0.6-0.7c0.2-0.2,0.5-0.3,0.8-0.4c0.3-0.1,0.6-0.1,0.9-0.1
		c0.4,0,0.7,0.1,1,0.2s0.5,0.3,0.7,0.5c0.2,0.2,0.4,0.4,0.5,0.7c0.1,0.3,0.2,0.6,0.2,0.9c0,0.3,0,0.5-0.1,0.8
		c-0.1,0.2-0.2,0.5-0.3,0.7c-0.1,0.2-0.3,0.4-0.5,0.6c-0.2,0.2-0.4,0.4-0.5,0.6l-1.4,1.5c0.2-0.1,0.4-0.1,0.5-0.1s0.3,0,0.5,0H544.1
		z"/>
	<path class="st3" d="M545.5,255.3c0.1-0.4,0.2-0.7,0.3-1c0.2-0.3,0.3-0.5,0.6-0.7c0.2-0.2,0.5-0.3,0.8-0.4c0.3-0.1,0.6-0.1,0.9-0.1
		c0.4,0,0.7,0.1,1,0.2c0.3,0.1,0.5,0.2,0.7,0.4s0.3,0.4,0.4,0.6s0.1,0.5,0.1,0.8c0,0.2,0,0.5-0.1,0.6c0,0.2-0.1,0.3-0.2,0.5
		c-0.1,0.1-0.2,0.2-0.3,0.3s-0.3,0.2-0.5,0.2c0.8,0.3,1.2,0.9,1.2,1.7c0,0.4-0.1,0.8-0.2,1.1c-0.1,0.3-0.3,0.5-0.6,0.7
		c-0.2,0.2-0.5,0.3-0.8,0.4c-0.3,0.1-0.6,0.1-1,0.1c-0.3,0-0.7,0-0.9-0.1c-0.3-0.1-0.5-0.2-0.7-0.4s-0.4-0.4-0.6-0.6
		c-0.2-0.3-0.3-0.6-0.4-0.9l0.7-0.3c0.2-0.1,0.3-0.1,0.5-0.1c0.2,0,0.3,0.1,0.3,0.2c0.1,0.3,0.3,0.5,0.5,0.6s0.4,0.2,0.6,0.2
		c0.2,0,0.3,0,0.5-0.1s0.2-0.1,0.3-0.2s0.1-0.2,0.2-0.3c0-0.1,0.1-0.2,0.1-0.4c0-0.2,0-0.3,0-0.4c0-0.1-0.1-0.2-0.2-0.3
		c-0.1-0.1-0.2-0.2-0.5-0.2s-0.5-0.1-0.8-0.1v-1.1c0.3,0,0.5,0,0.7-0.1c0.2,0,0.3-0.1,0.4-0.2c0.1-0.1,0.2-0.2,0.2-0.3s0-0.3,0-0.4
		c0-0.3-0.1-0.5-0.2-0.7c-0.1-0.2-0.3-0.2-0.6-0.2c-0.2,0-0.4,0.1-0.6,0.2c-0.2,0.1-0.3,0.3-0.3,0.5c-0.1,0.2-0.2,0.3-0.3,0.4
		c-0.1,0.1-0.3,0.1-0.5,0L545.5,255.3z"/>
	<path class="st3" d="M553,255.8c0.1,0,0.3,0,0.4-0.1s0.2,0,0.4,0c0.4,0,0.7,0.1,1,0.2c0.3,0.1,0.5,0.3,0.7,0.5
		c0.2,0.2,0.3,0.5,0.5,0.7c0.1,0.3,0.2,0.6,0.2,0.9c0,0.4-0.1,0.8-0.2,1.1c-0.1,0.3-0.3,0.6-0.6,0.9c-0.2,0.2-0.5,0.4-0.9,0.6
		c-0.3,0.1-0.7,0.2-1.1,0.2c-0.2,0-0.5,0-0.7-0.1c-0.2-0.1-0.4-0.1-0.6-0.2s-0.4-0.2-0.5-0.3c-0.2-0.1-0.3-0.2-0.4-0.4l0.5-0.7
		c0-0.1,0.1-0.1,0.2-0.2c0.1,0,0.1-0.1,0.2-0.1c0.1,0,0.2,0,0.3,0.1c0.1,0.1,0.2,0.1,0.3,0.2c0.1,0.1,0.2,0.1,0.4,0.2
		s0.3,0.1,0.5,0.1c0.2,0,0.4,0,0.5-0.1s0.3-0.2,0.4-0.3c0.1-0.1,0.2-0.3,0.2-0.4c0-0.2,0.1-0.3,0.1-0.5c0-0.4-0.1-0.6-0.3-0.8
		s-0.5-0.3-0.8-0.3c-0.3,0-0.6,0.1-1,0.2l-1-0.3l0.6-3.8h3.7v0.7c0,0.1,0,0.2,0,0.3c0,0.1-0.1,0.2-0.2,0.2c-0.1,0.1-0.2,0.1-0.3,0.2
		c-0.1,0-0.3,0.1-0.4,0.1h-1.7L553,255.8z"/>
</g>
<g>
	<path class="st3" d="M388.8,268.8c0.2,0,0.3,0,0.4,0.1c0.1,0.1,0.1,0.2,0.1,0.4v0.9h-5.1v-0.5c0-0.1,0-0.2,0.1-0.3
		c0-0.1,0.1-0.2,0.2-0.3l2.1-2.2c0.2-0.2,0.3-0.4,0.5-0.5c0.1-0.2,0.2-0.3,0.3-0.5c0.1-0.2,0.2-0.3,0.2-0.5s0.1-0.3,0.1-0.5
		c0-0.3-0.1-0.5-0.2-0.7c-0.1-0.2-0.3-0.2-0.6-0.2c-0.2,0-0.4,0.1-0.6,0.2c-0.2,0.1-0.3,0.3-0.3,0.5c-0.1,0.2-0.2,0.3-0.3,0.4
		c-0.1,0.1-0.3,0.1-0.5,0l-0.8-0.2c0.1-0.4,0.2-0.7,0.3-1c0.2-0.3,0.3-0.5,0.6-0.7c0.2-0.2,0.5-0.3,0.8-0.4c0.3-0.1,0.6-0.1,0.9-0.1
		c0.4,0,0.7,0.1,1,0.2s0.5,0.3,0.7,0.5c0.2,0.2,0.4,0.4,0.5,0.7c0.1,0.3,0.2,0.6,0.2,0.9c0,0.3,0,0.5-0.1,0.8
		c-0.1,0.2-0.2,0.5-0.3,0.7c-0.1,0.2-0.3,0.4-0.5,0.6c-0.2,0.2-0.4,0.4-0.5,0.6l-1.4,1.5c0.2-0.1,0.4-0.1,0.5-0.1s0.3,0,0.5,0H388.8
		z"/>
	<path class="st3" d="M390.2,264.8c0.1-0.4,0.2-0.7,0.3-1c0.2-0.3,0.3-0.5,0.6-0.7c0.2-0.2,0.5-0.3,0.8-0.4c0.3-0.1,0.6-0.1,0.9-0.1
		c0.4,0,0.7,0.1,1,0.2c0.3,0.1,0.5,0.2,0.7,0.4s0.3,0.4,0.4,0.6s0.1,0.5,0.1,0.8c0,0.2,0,0.5-0.1,0.6c0,0.2-0.1,0.3-0.2,0.5
		c-0.1,0.1-0.2,0.2-0.3,0.3s-0.3,0.2-0.5,0.2c0.8,0.3,1.2,0.9,1.2,1.7c0,0.4-0.1,0.8-0.2,1.1c-0.1,0.3-0.3,0.5-0.6,0.7
		c-0.2,0.2-0.5,0.3-0.8,0.4c-0.3,0.1-0.6,0.1-1,0.1c-0.3,0-0.7,0-0.9-0.1c-0.3-0.1-0.5-0.2-0.7-0.4s-0.4-0.4-0.6-0.6
		c-0.2-0.3-0.3-0.6-0.4-0.9l0.7-0.3c0.2-0.1,0.3-0.1,0.5-0.1c0.2,0,0.3,0.1,0.3,0.2c0.1,0.3,0.3,0.5,0.5,0.6s0.4,0.2,0.6,0.2
		c0.2,0,0.3,0,0.5-0.1s0.2-0.1,0.3-0.2s0.1-0.2,0.2-0.3c0-0.1,0.1-0.2,0.1-0.4c0-0.2,0-0.3,0-0.4c0-0.1-0.1-0.2-0.2-0.3
		c-0.1-0.1-0.2-0.2-0.5-0.2s-0.5-0.1-0.8-0.1v-1.1c0.3,0,0.5,0,0.7-0.1c0.2,0,0.3-0.1,0.4-0.2c0.1-0.1,0.2-0.2,0.2-0.3s0-0.3,0-0.4
		c0-0.3-0.1-0.5-0.2-0.7c-0.1-0.2-0.3-0.2-0.6-0.2c-0.2,0-0.4,0.1-0.6,0.2c-0.2,0.1-0.3,0.3-0.3,0.5c-0.1,0.2-0.2,0.3-0.3,0.4
		c-0.1,0.1-0.3,0.1-0.5,0L390.2,264.8z"/>
	<path class="st3" d="M400.7,269.1v1.2h-4.1v-1.2h1.4v-3.8c0-0.1,0-0.2,0-0.3c0-0.1,0-0.2,0-0.3l-0.8,0.7c-0.1,0.1-0.1,0.1-0.2,0.1
		c-0.1,0-0.1,0-0.2,0c-0.1,0-0.1,0-0.2-0.1s-0.1-0.1-0.1-0.1l-0.5-0.7l2.3-2h1.3v6.4H400.7z"/>
</g>
<g>
	<path class="st3" d="M460.1,270.7c0.2,0,0.3,0,0.4,0.1c0.1,0.1,0.1,0.2,0.1,0.4v0.9h-5.1v-0.5c0-0.1,0-0.2,0.1-0.3
		c0-0.1,0.1-0.2,0.2-0.3l2.1-2.2c0.2-0.2,0.3-0.4,0.5-0.5c0.1-0.2,0.2-0.3,0.3-0.5c0.1-0.2,0.2-0.3,0.2-0.5s0.1-0.3,0.1-0.5
		c0-0.3-0.1-0.5-0.2-0.7c-0.1-0.2-0.3-0.2-0.6-0.2c-0.2,0-0.4,0.1-0.6,0.2c-0.2,0.1-0.3,0.3-0.3,0.5c-0.1,0.2-0.2,0.3-0.3,0.4
		c-0.1,0.1-0.3,0.1-0.5,0l-0.8-0.2c0.1-0.4,0.2-0.7,0.3-1c0.2-0.3,0.3-0.5,0.6-0.7c0.2-0.2,0.5-0.3,0.8-0.4c0.3-0.1,0.6-0.1,0.9-0.1
		c0.4,0,0.7,0.1,1,0.2s0.5,0.3,0.7,0.5c0.2,0.2,0.4,0.4,0.5,0.7c0.1,0.3,0.2,0.6,0.2,0.9c0,0.3,0,0.5-0.1,0.8
		c-0.1,0.2-0.2,0.5-0.3,0.7c-0.1,0.2-0.3,0.4-0.5,0.6c-0.2,0.2-0.4,0.4-0.5,0.6l-1.4,1.5c0.2-0.1,0.4-0.1,0.5-0.1s0.3,0,0.5,0H460.1
		z"/>
	<path class="st3" d="M465.9,270.7c0.2,0,0.3,0,0.4,0.1c0.1,0.1,0.1,0.2,0.1,0.4v0.9h-5.1v-0.5c0-0.1,0-0.2,0.1-0.3
		c0-0.1,0.1-0.2,0.2-0.3l2.1-2.2c0.2-0.2,0.3-0.4,0.5-0.5c0.1-0.2,0.2-0.3,0.3-0.5c0.1-0.2,0.2-0.3,0.2-0.5s0.1-0.3,0.1-0.5
		c0-0.3-0.1-0.5-0.2-0.7c-0.1-0.2-0.3-0.2-0.6-0.2c-0.2,0-0.4,0.1-0.6,0.2c-0.2,0.1-0.3,0.3-0.3,0.5c-0.1,0.2-0.2,0.3-0.3,0.4
		c-0.1,0.1-0.3,0.1-0.5,0l-0.8-0.2c0.1-0.4,0.2-0.7,0.3-1c0.2-0.3,0.3-0.5,0.6-0.7c0.2-0.2,0.5-0.3,0.8-0.4c0.3-0.1,0.6-0.1,0.9-0.1
		c0.4,0,0.7,0.1,1,0.2s0.5,0.3,0.7,0.5c0.2,0.2,0.4,0.4,0.5,0.7c0.1,0.3,0.2,0.6,0.2,0.9c0,0.3,0,0.5-0.1,0.8
		c-0.1,0.2-0.2,0.5-0.3,0.7c-0.1,0.2-0.3,0.4-0.5,0.6c-0.2,0.2-0.4,0.4-0.5,0.6l-1.4,1.5c0.2-0.1,0.4-0.1,0.5-0.1s0.3,0,0.5,0H465.9
		z"/>
	<path class="st3" d="M471.1,268.2c0.2,0.1,0.4,0.2,0.6,0.3c0.2,0.1,0.3,0.3,0.4,0.4s0.2,0.3,0.2,0.5c0,0.2,0.1,0.4,0.1,0.6
		c0,0.3-0.1,0.7-0.2,0.9c-0.1,0.3-0.3,0.5-0.5,0.7c-0.2,0.2-0.5,0.3-0.8,0.5c-0.3,0.1-0.7,0.2-1.1,0.2c-0.4,0-0.7-0.1-1.1-0.2
		c-0.3-0.1-0.6-0.3-0.8-0.5c-0.2-0.2-0.4-0.4-0.5-0.7c-0.1-0.3-0.2-0.6-0.2-0.9c0-0.2,0-0.4,0.1-0.6c0-0.2,0.1-0.4,0.2-0.5
		s0.2-0.3,0.4-0.4s0.3-0.2,0.6-0.3c-0.3-0.2-0.6-0.4-0.7-0.6c-0.2-0.3-0.2-0.6-0.2-1c0-0.3,0.1-0.6,0.2-0.8s0.3-0.5,0.5-0.7
		s0.5-0.3,0.7-0.4s0.6-0.2,0.9-0.2c0.3,0,0.7,0.1,0.9,0.2s0.5,0.3,0.7,0.4s0.4,0.4,0.5,0.7s0.2,0.5,0.2,0.8c0,0.4-0.1,0.7-0.2,1
		C471.6,267.8,471.4,268.1,471.1,268.2z M469.7,271c0.2,0,0.3,0,0.4-0.1c0.1-0.1,0.2-0.1,0.3-0.2c0.1-0.1,0.1-0.2,0.2-0.3
		c0-0.1,0.1-0.3,0.1-0.4c0-0.2,0-0.3,0-0.4s-0.1-0.3-0.2-0.3s-0.2-0.2-0.3-0.2c-0.1-0.1-0.3-0.1-0.5-0.1c-0.2,0-0.3,0-0.5,0.1
		c-0.1,0.1-0.2,0.1-0.3,0.2s-0.1,0.2-0.2,0.3s0,0.3,0,0.4c0,0.2,0,0.3,0.1,0.4c0,0.1,0.1,0.2,0.2,0.3s0.2,0.2,0.3,0.2
		C469.4,271,469.5,271,469.7,271z M469.7,265.7c-0.2,0-0.3,0-0.4,0.1c-0.1,0.1-0.2,0.1-0.3,0.2s-0.1,0.2-0.1,0.3c0,0.1,0,0.2,0,0.3
		c0,0.1,0,0.3,0,0.4c0,0.1,0.1,0.2,0.1,0.3s0.1,0.2,0.3,0.2c0.1,0.1,0.3,0.1,0.4,0.1c0.2,0,0.3,0,0.4-0.1c0.1-0.1,0.2-0.1,0.3-0.2
		c0.1-0.1,0.1-0.2,0.1-0.3s0-0.3,0-0.4c0-0.1,0-0.2,0-0.3c0-0.1-0.1-0.2-0.1-0.3s-0.2-0.2-0.3-0.2
		C470,265.7,469.8,265.7,469.7,265.7z"/>
</g>
<polygon class="st4" points="82.6,336.2 82.6,327.3 95,327.3 96.1,327.3 96.2,321.5 109.4,331.8 96,341.9 96.1,336.2 "/>
<ellipse class="st4" cx="51.8" cy="53.2" rx="5.7" ry="6"/>
<ellipse class="st4" cx="134.9" cy="178.6" rx="5.7" ry="6"/>
<ellipse class="st4" cx="218.4" cy="238.7" rx="5.7" ry="6"/>
<ellipse class="st4" cx="300" cy="270.9" rx="5.7" ry="6"/>
<ellipse class="st4" cx="547.9" cy="270.9" rx="5.7" ry="6"/>
<ellipse class="st4" cx="383" cy="279.8" rx="5.7" ry="6"/>
<ellipse class="st4" cx="464" cy="284.3" rx="5.7" ry="6"/>
<g>
	<path class="st0" d="M538.5,336.1c0.1,0,0.2,0,0.3,0.1c0.1,0.1,0.1,0.2,0.1,0.3v0.8h-6.8V337c0-0.1,0-0.2,0.1-0.3
		c0-0.1,0.1-0.2,0.2-0.3l3.3-3.4c0.3-0.3,0.5-0.6,0.7-0.8c0.2-0.3,0.4-0.5,0.6-0.8c0.2-0.3,0.3-0.5,0.4-0.8c0.1-0.3,0.1-0.6,0.1-0.9
		c0-0.3,0-0.6-0.1-0.8s-0.2-0.4-0.4-0.6c-0.2-0.2-0.4-0.3-0.6-0.3c-0.2-0.1-0.5-0.1-0.7-0.1c-0.3,0-0.5,0-0.7,0.1
		c-0.2,0.1-0.4,0.2-0.6,0.3c-0.2,0.1-0.3,0.3-0.4,0.5c-0.1,0.2-0.2,0.4-0.2,0.6c-0.1,0.2-0.1,0.3-0.2,0.3c-0.1,0.1-0.2,0.1-0.4,0
		l-0.7-0.1c0.1-0.5,0.2-0.9,0.4-1.3s0.4-0.7,0.7-0.9c0.3-0.3,0.6-0.4,1-0.6c0.4-0.1,0.8-0.2,1.2-0.2c0.4,0,0.8,0.1,1.2,0.2
		c0.4,0.1,0.7,0.3,1,0.6c0.3,0.3,0.5,0.6,0.6,0.9c0.2,0.4,0.2,0.8,0.2,1.3c0,0.4-0.1,0.8-0.2,1.1c-0.1,0.3-0.3,0.7-0.5,1
		c-0.2,0.3-0.4,0.6-0.7,0.9c-0.3,0.3-0.5,0.6-0.8,0.9l-2.7,2.9c0.2-0.1,0.4-0.1,0.6-0.1c0.2,0,0.4,0,0.6,0H538.5z"/>
	<path class="st0" d="M547.5,332.1c0,0.9-0.1,1.7-0.3,2.4c-0.2,0.7-0.5,1.2-0.8,1.7c-0.3,0.4-0.7,0.8-1.2,1
		c-0.5,0.2-0.9,0.3-1.5,0.3c-0.5,0-1-0.1-1.5-0.3s-0.8-0.6-1.2-1c-0.3-0.4-0.6-1-0.8-1.7c-0.2-0.7-0.3-1.5-0.3-2.4
		c0-0.9,0.1-1.7,0.3-2.4c0.2-0.7,0.5-1.3,0.8-1.7s0.7-0.8,1.2-1s0.9-0.3,1.5-0.3c0.5,0,1,0.1,1.5,0.3c0.5,0.2,0.8,0.6,1.2,1
		s0.6,1,0.8,1.7C547.4,330.3,547.5,331.1,547.5,332.1z M546.2,332.1c0-0.8-0.1-1.5-0.2-2.1c-0.1-0.6-0.3-1-0.5-1.3s-0.5-0.6-0.8-0.7
		c-0.3-0.1-0.6-0.2-0.9-0.2c-0.3,0-0.6,0.1-0.9,0.2c-0.3,0.1-0.5,0.4-0.8,0.7c-0.2,0.3-0.4,0.8-0.5,1.3c-0.1,0.6-0.2,1.2-0.2,2.1
		c0,0.8,0.1,1.5,0.2,2c0.1,0.6,0.3,1,0.5,1.3c0.2,0.3,0.5,0.6,0.8,0.7c0.3,0.1,0.6,0.2,0.9,0.2c0.3,0,0.6-0.1,0.9-0.2
		s0.5-0.4,0.8-0.7s0.4-0.8,0.5-1.3C546.1,333.6,546.2,332.9,546.2,332.1z"/>
	<path class="st0" d="M555.2,336.4v1h-5.5v-1h2.2v-7.3c0-0.2,0-0.4,0-0.7l-1.8,1.6c-0.1,0.1-0.1,0.1-0.2,0.1c-0.1,0-0.1,0-0.2,0
		c-0.1,0-0.1,0-0.1-0.1c0,0-0.1-0.1-0.1-0.1l-0.4-0.6l3-2.8h1v9.7H555.2z"/>
	<path class="st0" d="M561.2,333.1c0.1-0.1,0.2-0.3,0.3-0.4c0.1-0.1,0.2-0.3,0.3-0.4c-0.3,0.2-0.6,0.4-0.9,0.5s-0.7,0.2-1,0.2
		c-0.4,0-0.7-0.1-1.1-0.2c-0.3-0.1-0.6-0.3-0.9-0.6c-0.3-0.3-0.5-0.6-0.6-1c-0.2-0.4-0.2-0.8-0.2-1.3c0-0.5,0.1-0.9,0.2-1.3
		c0.2-0.4,0.4-0.8,0.7-1.1c0.3-0.3,0.7-0.5,1.1-0.7c0.4-0.2,0.9-0.3,1.4-0.3c0.5,0,0.9,0.1,1.3,0.3s0.7,0.4,1,0.7
		c0.3,0.3,0.5,0.7,0.7,1.1s0.2,0.9,0.2,1.4c0,0.3,0,0.6-0.1,0.9c-0.1,0.3-0.1,0.5-0.2,0.8c-0.1,0.3-0.2,0.5-0.4,0.8
		c-0.1,0.3-0.3,0.5-0.5,0.8l-2.5,3.8c-0.1,0.1-0.1,0.2-0.3,0.2c-0.1,0.1-0.2,0.1-0.4,0.1h-1.2L561.2,333.1z M558.2,329.9
		c0,0.3,0,0.6,0.1,0.9c0.1,0.3,0.2,0.5,0.4,0.7c0.2,0.2,0.4,0.3,0.6,0.4s0.5,0.1,0.8,0.1c0.3,0,0.6-0.1,0.9-0.2
		c0.3-0.1,0.5-0.3,0.7-0.5c0.2-0.2,0.3-0.4,0.4-0.7c0.1-0.3,0.1-0.5,0.1-0.8c0-0.3-0.1-0.6-0.2-0.9c-0.1-0.3-0.2-0.5-0.4-0.7
		c-0.2-0.2-0.4-0.3-0.6-0.4c-0.2-0.1-0.5-0.2-0.8-0.2c-0.3,0-0.6,0.1-0.9,0.2c-0.3,0.1-0.5,0.3-0.7,0.4c-0.2,0.2-0.3,0.4-0.4,0.7
		S558.2,329.5,558.2,329.9z"/>
</g>
<polyline class="st5" points="134.9,178.6 218.4,238.7 300,270.9 383,279.8 464,284.3 547.9,270.9 "/>
<line class="st6" x1="127.9" y1="170.1" x2="57.5" y2="61.4"/>
<circle class="st7" cx="425.2" cy="140.7" r="67.4"/>
<polygon class="st4" points="417.2,159.1 430.2,159.1 430.2,172.3 430.2,173.5 438.6,173.5 423.7,187.5 408.9,173.3 417.2,173.4 "/>
<g>
	<path class="st0" d="M382.6,124.4c0.2-1.7,0.7-3.1,1.4-4.4s1.6-2.3,2.6-3.1s2.2-1.5,3.6-1.9c1.3-0.4,2.8-0.6,4.3-0.6
		c1.7,0,3.1,0.2,4.4,0.7c1.3,0.5,2.4,1.1,3.3,1.9c0.9,0.8,1.6,1.7,2,2.8c0.5,1.1,0.7,2.2,0.7,3.3c0,1.1-0.1,2-0.3,2.8
		c-0.2,0.8-0.5,1.5-1,2.1s-0.9,1.1-1.6,1.5c-0.6,0.4-1.3,0.8-2.1,1c3.7,1.3,5.6,3.9,5.6,7.6c0,1.8-0.3,3.3-1,4.7
		c-0.6,1.3-1.5,2.4-2.6,3.3c-1.1,0.9-2.3,1.5-3.8,2c-1.4,0.4-2.9,0.7-4.5,0.7c-1.6,0-3-0.2-4.3-0.5s-2.4-0.9-3.3-1.6
		s-1.8-1.7-2.6-2.8c-0.7-1.1-1.4-2.5-1.9-4.1l3.2-1.3c0.8-0.3,1.6-0.4,2.3-0.3c0.7,0.2,1.2,0.5,1.5,1.1c0.7,1.3,1.4,2.2,2.2,2.8
		c0.8,0.6,1.7,0.9,2.7,0.9c0.8,0,1.5-0.1,2.1-0.4c0.6-0.3,1.1-0.6,1.5-1c0.4-0.4,0.7-0.9,0.9-1.4s0.3-1.1,0.3-1.6c0-0.7,0-1.4-0.1-2
		c-0.1-0.6-0.4-1.1-0.8-1.5c-0.5-0.4-1.2-0.7-2.1-1c-0.9-0.2-2.2-0.3-3.9-0.3v-4.9c1.4,0,2.5-0.1,3.4-0.3c0.9-0.2,1.5-0.5,2-0.9
		c0.5-0.4,0.8-0.8,0.9-1.4c0.2-0.5,0.2-1.1,0.2-1.8c0-1.3-0.3-2.3-1-3.1s-1.6-1.1-2.9-1.1c-1.1,0-2,0.3-2.7,0.8
		c-0.7,0.6-1.2,1.3-1.5,2.1c-0.3,0.8-0.7,1.4-1.3,1.7c-0.5,0.3-1.3,0.3-2.2,0.2L382.6,124.4z"/>
	<path class="st0" d="M417.6,126.7c0.6-0.1,1.2-0.2,1.8-0.3c0.6,0,1.2-0.1,1.7-0.1c1.8,0,3.3,0.3,4.7,0.8c1.4,0.5,2.5,1.3,3.4,2.2
		c0.9,0.9,1.6,2,2.1,3.3c0.5,1.3,0.7,2.6,0.7,4c0,1.8-0.3,3.4-1,4.9c-0.6,1.5-1.5,2.8-2.7,3.8c-1.1,1.1-2.5,1.9-4.1,2.5
		c-1.6,0.6-3.3,0.9-5.2,0.9c-1.1,0-2.1-0.1-3.1-0.3c-1-0.2-1.9-0.5-2.8-0.9c-0.9-0.4-1.7-0.8-2.4-1.4c-0.7-0.5-1.4-1.1-2-1.7l2.2-3
		c0.2-0.3,0.5-0.5,0.8-0.7c0.3-0.2,0.6-0.2,1-0.2c0.5,0,0.9,0.1,1.3,0.4c0.4,0.3,0.9,0.5,1.3,0.8c0.5,0.3,1.1,0.6,1.7,0.8
		c0.6,0.2,1.4,0.4,2.4,0.4s1.8-0.2,2.5-0.5c0.7-0.3,1.2-0.7,1.7-1.3c0.4-0.5,0.7-1.2,0.9-1.9c0.2-0.7,0.3-1.5,0.3-2.3
		c0-1.6-0.5-2.9-1.4-3.7c-0.9-0.9-2.2-1.3-3.9-1.3c-1.5,0-3,0.3-4.4,0.9l-4.4-1.2l2.9-16.8h17.2v3c0,0.5-0.1,0.9-0.2,1.3
		c-0.2,0.4-0.4,0.8-0.7,1.1c-0.3,0.3-0.8,0.5-1.3,0.7c-0.5,0.2-1.2,0.2-1.9,0.2h-8L417.6,126.7z"/>
	<path class="st0" d="M451.9,123c0,1.2-0.2,2.4-0.7,3.4s-1,1.9-1.8,2.6c-0.7,0.7-1.6,1.3-2.6,1.7c-1,0.4-2,0.6-3.1,0.6
		c-1.2,0-2.2-0.2-3.2-0.6c-1-0.4-1.8-1-2.5-1.7c-0.7-0.7-1.3-1.6-1.7-2.6c-0.4-1-0.6-2.1-0.6-3.4c0-1.3,0.2-2.4,0.6-3.5
		c0.4-1,1-1.9,1.7-2.7c0.7-0.7,1.6-1.3,2.5-1.7c1-0.4,2.1-0.6,3.2-0.6c1.2,0,2.3,0.2,3.2,0.6c1,0.4,1.8,1,2.6,1.7
		c0.7,0.7,1.3,1.6,1.7,2.7S451.9,121.7,451.9,123z M462.5,115.9c0.2-0.3,0.5-0.5,0.9-0.7c0.3-0.2,0.8-0.3,1.4-0.3h5.2l-25.4,32.7
		c-0.2,0.3-0.5,0.5-0.9,0.7c-0.3,0.2-0.8,0.3-1.3,0.3h-5.4L462.5,115.9z M446.4,123c0-0.8-0.1-1.4-0.2-2c-0.1-0.5-0.3-0.9-0.5-1.2
		s-0.5-0.5-0.8-0.6c-0.3-0.1-0.7-0.2-1-0.2c-0.4,0-0.7,0.1-1,0.2c-0.3,0.1-0.6,0.3-0.8,0.6c-0.2,0.3-0.4,0.7-0.5,1.2
		c-0.1,0.5-0.2,1.2-0.2,2c0,0.7,0.1,1.4,0.2,1.8s0.3,0.9,0.5,1.2c0.2,0.3,0.5,0.5,0.8,0.6c0.3,0.1,0.6,0.2,1,0.2
		c0.4,0,0.7-0.1,1-0.2c0.3-0.1,0.6-0.3,0.8-0.6c0.2-0.3,0.4-0.7,0.5-1.2S446.4,123.7,446.4,123z M471.2,140.6c0,1.2-0.2,2.4-0.7,3.4
		c-0.4,1-1,1.9-1.8,2.6c-0.7,0.7-1.6,1.3-2.6,1.7c-1,0.4-2,0.6-3.1,0.6c-1.2,0-2.2-0.2-3.2-0.6c-1-0.4-1.8-1-2.5-1.7
		c-0.7-0.7-1.3-1.6-1.7-2.6c-0.4-1-0.6-2.2-0.6-3.4c0-1.3,0.2-2.4,0.6-3.5s1-1.9,1.7-2.7s1.6-1.3,2.5-1.7c1-0.4,2.1-0.6,3.2-0.6
		s2.3,0.2,3.2,0.6c1,0.4,1.8,1,2.6,1.7c0.7,0.7,1.3,1.6,1.7,2.7C471,138.1,471.2,139.3,471.2,140.6z M465.7,140.6
		c0-0.8-0.1-1.4-0.2-1.9s-0.3-0.9-0.5-1.2c-0.2-0.3-0.5-0.5-0.8-0.6c-0.3-0.1-0.7-0.2-1-0.2c-0.4,0-0.7,0.1-1,0.2
		c-0.3,0.1-0.6,0.3-0.8,0.6c-0.2,0.3-0.4,0.7-0.5,1.2c-0.1,0.5-0.2,1.2-0.2,1.9c0,0.7,0.1,1.4,0.2,1.8c0.1,0.5,0.3,0.9,0.5,1.2
		c0.2,0.3,0.5,0.5,0.8,0.6c0.3,0.1,0.6,0.2,1,0.2c0.4,0,0.7-0.1,1-0.2c0.3-0.1,0.6-0.3,0.8-0.6c0.2-0.3,0.4-0.7,0.5-1.2
		C465.7,141.9,465.7,141.3,465.7,140.6z"/>
</g>
</svg>
