<svg width="700" height="360" viewBox="0 0 700 360" xmlns="http://www.w3.org/2000/svg"><g fill="none" fill-rule="evenodd"><path fill="#EEE" d="M0 0h700v360H0z"/><path d="M148.627 162.21L306.785 61.218l144.904 90.187S319.54 274.576 313.16 280.4c-6.377 5.825-18.537-1.35-18.537-1.35L148.627 162.21zM147.15 160.712L305 60.176s-13.4-9.24-16.094-10.44c-2.693-1.2-4.29-1.852-7.067-.012-2.78 1.84-159.128 96.555-159.128 96.555s4.094-1.632 7.442 1.26c5.367 4.634 16.997 13.172 16.997 13.172z" stroke="#979797" fill="#D8D8D8"/><ellipse stroke="#979797" fill="#D8D8D8" transform="rotate(-31 130.708 161.054)" cx="130.708" cy="161.054" rx="6.967" ry="14.033"/><path d="M140.196 174.686c3.63-5.156 3.265-9.97.362-15.594l155.14 123.22s8.99 5.158 17.3 1.238c-7.215 6.89-19.138 0-19.138 0L148.184 167.744s-4.36 4.077-7.988 6.942z" stroke="#979797" fill="#D8D8D8"/><path d="M452.332 153.314L312.568 283.66" stroke="#979797"/><path d="M695.76 415.768s-63.607 7.62-75.977 0c-12.37-7.62-60.162-61.51-91.457-80.323-31.295-18.812-31.22-13.336-60.894-13.336-29.676 0-52.246-1.594-67.92-12.536-15.674-10.94-33.75-20.205-41.854-25.765-8.105-5.562-10.9-3.907-24.125-10.19-13.223-6.28-13.083-6.54-24.765-13.835-11.683-7.295-15.385-7.103-21.99-15.36-6.607-8.255-7.606-14.638-5.255-18.69 2.352-4.05 11.88-11.635 19.563-12.756 7.682-1.123 17.842 1.363 42.105 10.856 24.265 9.493 27.982 21.115 40.085 23.467 12.104 2.35 18.846.8 24.327-5.88 5.48-6.68 3.91-6.952 3.91-10.982 3.244-20.96-14.2-32.145-26.496-50.485 0 0-20.704-4.025-37.477-12.96 0 0-14.007 4.454-33.226 1.9 0 0-32.79 6.205-43.73-7.653 0-20.84 21.34-23.418 21.34-23.418l49.537-14.158 70.052 27.318 63.045 54.29 213.634 165.86 7.57 44.634z" fill-opacity=".1" fill="#000"/><path d="M333.557 82.35c12.728-6.376 44.804-3.036 54.34-3.477 9.535-.44 9.497-3.648 20.812 0 11.314 3.648 6.33 5.73 15.884 12.934 9.552 7.205 40.955 26.744 40.955 26.744l-4.73 14.362-123.414-25.92s-16.578-18.267-3.85-24.642z" stroke="#979797" fill="#FFF"/><path d="M301.926 111.525c-14.51-5.533-22.55-11.746-25.367-15.195-2.82-3.45 3.223-11.898 3.223-11.898s30.125-5.58 34.82-5.94c4.696-.36 9.756 2.06 13.16 2.262 3.405.2 27.72-2.68 43.608 0 15.888 2.68 36.327 13.484 36.327 13.484s58.065 17.287 69.924 21.366c11.86 4.078 93.743 97.437 113.558 112.83 19.814 15.392 14.836 12.628 41.707 25.363 26.87 12.734 106.635 40.726 106.635 40.726v89.813l-148.625-18.504-48.11-57.566-152.662-168.623s-73.688-22.584-88.197-28.118z" stroke="#979797" fill="#FFF"/><path d="M600.188 364.967l-62.47-41.856-29.572-12.055-72.05-7.006s-49.955-65.575-40.996-86.8c8.96-21.225 8.707-31.752 8.707-42.88-5.32-2.956-12.41-11.083-24.803-23.333-8.373 0-33.164-9.94-38.652-14.834-12.223 2.252-31.297 2.252-31.297 2.252s-17.364 7.57-28.758 5.348c-11.394-2.223-15.748-14.03-15.748-14.03s15.944-15.654 22.364-18.863c6.42-3.21 45.332-9.457 45.332-9.457s11.8-7.062 18.98-4.61l14.795 3.06s26.91 8.173 41.13 10.91c14.22 2.736 20.204.818 29.22 2.626 9.018 1.808 16.94 6.628 16.94 6.628" stroke="#979797" fill="#FFF"/><path d="M690.76 384.768s-63.607 7.62-75.977 0c-12.37-7.62-73.63-63.756-107.05-69.598-33.422-5.843-41.822 1.94-70.676-5.73-28.854-7.668-33.56-15.2-49.235-26.14-15.674-10.943-27.06-24.93-35.164-30.49-8.105-5.562-10.9-3.907-24.125-10.19-13.223-6.28-13.083-6.54-24.765-13.835-11.683-7.295-15.385-7.103-21.99-15.36-6.607-8.255-7.606-14.638-5.255-18.69 2.352-4.05 11.88-11.635 19.563-12.756 7.682-1.123 17.842 1.363 42.105 10.856 24.265 9.493 27.982 21.115 40.085 23.467 12.104 2.35 18.846.8 24.327-5.88 5.48-6.68 9.86-24.745 9.86-24.745" stroke="#979797" fill="#FFF"/><path d="M518.676 144.437l-19.992 15.71c46.18 65.505 86.718 87.54 86.718 87.54l-12.632 13.535 58.76-3.455-21.33-35.95s-5.214 5.946-8.11 8.79c-28.916-12.315-75.06-70.46-83.414-86.17z" fill-opacity=".1" fill="#000"/><path d="M521.295 136.566l-19.992 15.71c46.18 65.505 86.718 87.54 86.718 87.54l-12.63 13.536 58.76-3.456-21.33-35.95s-5.215 5.947-8.11 8.79c-28.917-12.314-75.06-70.46-83.415-86.17z" fill="#E04B4B"/></g></svg>